<svg id="svg" version="1.1" xmlns="http://www.w3.org/2000/svg" xmlns:xlink="http://www.w3.org/1999/xlink" width="400" height="400" viewBox="0, 0, 400,400"><g id="svgg"><path id="path0" d="M84.400 34.800 C 84.400 35.333,84.133 35.600,83.600 35.600 C 83.082 35.600,82.800 35.867,82.800 36.357 C 82.800 37.219,82.055 37.600,80.367 37.600 C 79.467 37.600,79.200 37.783,79.200 38.400 C 79.200 38.933,78.933 39.200,78.400 39.200 C 77.867 39.200,77.600 39.467,77.600 40.000 C 77.600 40.587,77.333 40.800,76.600 40.800 C 75.800 40.800,75.600 41.000,75.600 41.800 C 75.600 42.700,75.440 42.800,74.000 42.800 C 72.667 42.800,72.400 42.933,72.400 43.600 C 72.400 44.187,72.133 44.400,71.400 44.400 C 70.667 44.400,70.400 44.613,70.400 45.200 C 70.400 45.779,70.133 46.000,69.433 46.000 C 67.941 46.000,67.200 46.413,67.200 47.243 C 67.200 47.784,66.914 48.000,66.200 48.000 C 65.467 48.000,65.200 48.213,65.200 48.800 C 65.200 49.333,64.933 49.600,64.400 49.600 C 63.867 49.600,63.600 49.867,63.600 50.400 C 63.600 50.992,63.333 51.200,62.574 51.200 C 61.232 51.200,60.000 51.877,60.000 52.614 C 60.000 52.936,59.640 53.200,59.200 53.200 C 58.667 53.200,58.400 53.467,58.400 54.000 C 58.400 54.670,58.133 54.800,56.763 54.800 C 55.488 54.800,55.081 54.969,54.926 55.563 C 54.816 55.983,54.383 56.416,53.963 56.526 C 53.519 56.642,53.200 57.075,53.200 57.563 C 53.200 58.189,52.948 58.400,52.200 58.400 C 51.467 58.400,51.200 58.613,51.200 59.200 C 51.200 59.733,50.933 60.000,50.400 60.000 C 49.641 60.000,49.600 60.267,49.600 65.200 C 49.600 70.073,49.649 70.400,50.373 70.400 C 50.798 70.400,51.260 70.760,51.400 71.200 C 51.627 71.916,52.005 72.000,54.999 72.000 C 58.164 72.000,58.351 72.049,58.472 72.900 C 58.591 73.739,58.823 73.808,61.900 73.916 C 64.871 74.021,65.200 74.110,65.200 74.816 C 65.200 75.514,65.485 75.600,67.800 75.600 L 70.400 75.600 70.400 77.400 C 70.400 78.933,70.281 79.200,69.600 79.200 C 68.882 79.200,68.800 79.467,68.800 81.800 C 68.800 84.080,68.707 84.400,68.047 84.400 C 67.115 84.400,66.813 85.437,66.805 88.653 C 66.801 90.768,66.689 91.136,66.000 91.316 C 65.309 91.497,65.200 91.862,65.200 94.000 C 65.200 96.138,65.091 96.503,64.400 96.684 C 63.680 96.872,63.600 97.230,63.600 100.247 C 63.600 103.270,63.526 103.600,62.843 103.600 C 61.830 103.600,61.600 104.348,61.600 107.633 C 61.600 110.133,61.523 110.400,60.800 110.400 C 60.082 110.400,60.000 110.667,60.000 113.000 C 60.000 115.333,59.918 115.600,59.200 115.600 C 58.460 115.600,58.400 115.867,58.400 119.172 C 58.400 122.572,58.357 122.751,57.500 122.872 C 56.694 122.987,56.588 123.256,56.482 125.458 C 56.384 127.505,56.233 127.950,55.582 128.121 C 54.887 128.302,54.800 128.686,54.800 131.563 C 54.800 134.533,54.734 134.800,54.000 134.800 C 53.263 134.800,53.200 135.067,53.200 138.172 C 53.200 141.365,53.152 141.551,52.300 141.672 C 51.447 141.793,51.400 141.979,51.400 145.200 L 51.400 148.600 54.857 148.715 C 57.904 148.816,58.339 148.923,58.520 149.615 C 58.695 150.287,59.077 150.400,61.163 150.400 C 63.333 150.400,63.600 150.488,63.600 151.200 C 63.600 151.918,63.867 152.000,66.200 152.000 L 68.800 152.000 68.800 150.447 C 68.800 149.230,68.973 148.848,69.600 148.684 C 70.322 148.495,70.400 148.138,70.400 145.037 C 70.400 141.867,70.462 141.600,71.200 141.600 C 71.917 141.600,72.000 141.333,72.000 139.028 C 72.000 136.665,72.073 136.445,72.900 136.328 C 73.739 136.209,73.808 135.977,73.916 132.900 C 74.021 129.929,74.110 129.600,74.816 129.600 C 75.513 129.600,75.600 129.316,75.600 127.047 C 75.600 124.830,75.705 124.466,76.400 124.284 C 77.122 124.095,77.200 123.738,77.200 120.637 C 77.200 117.238,77.211 117.200,78.200 117.200 C 79.188 117.200,79.200 117.160,79.200 113.800 C 79.200 110.667,79.263 110.400,80.000 110.400 C 80.718 110.400,80.800 110.133,80.800 107.800 C 80.800 105.516,80.892 105.200,81.557 105.200 C 82.567 105.200,82.800 104.452,82.800 101.214 C 82.800 98.830,82.899 98.467,83.600 98.284 C 84.298 98.102,84.400 97.738,84.400 95.437 C 84.400 93.067,84.481 92.800,85.200 92.800 C 85.937 92.800,86.000 92.533,86.000 89.400 C 86.000 86.331,86.074 86.000,86.757 86.000 C 87.711 86.000,88.000 85.249,88.000 82.767 L 88.000 80.800 89.572 80.800 C 90.898 80.800,91.164 80.941,91.272 81.700 C 91.387 82.508,91.655 82.612,93.896 82.719 C 95.888 82.814,96.477 82.996,96.810 83.619 C 97.171 84.293,97.663 84.400,100.414 84.400 C 103.333 84.400,103.600 84.467,103.600 85.200 C 103.600 85.934,103.867 86.000,106.837 86.000 C 109.738 86.000,110.097 85.917,110.284 85.200 C 110.400 84.757,110.830 84.400,111.247 84.400 C 111.724 84.400,112.000 84.117,112.000 83.628 C 112.000 83.132,112.322 82.810,112.900 82.728 C 113.768 82.605,113.800 82.451,113.800 78.400 C 113.800 74.349,113.768 74.195,112.900 74.072 C 112.121 73.962,112.000 73.705,112.000 72.172 C 112.000 70.667,111.880 70.400,111.200 70.400 C 110.530 70.400,110.400 70.133,110.400 68.763 C 110.400 67.462,110.236 67.082,109.600 66.916 C 108.973 66.752,108.800 66.370,108.800 65.153 C 108.800 63.763,108.695 63.600,107.800 63.600 C 106.836 63.600,106.800 63.507,106.800 61.000 C 106.800 58.667,106.718 58.400,106.000 58.400 C 105.330 58.400,105.200 58.133,105.200 56.763 C 105.200 55.476,105.033 55.081,104.421 54.921 C 103.835 54.768,103.612 54.307,103.521 53.059 C 103.421 51.688,103.244 51.378,102.500 51.272 C 101.741 51.164,101.600 50.898,101.600 49.572 C 101.600 48.267,101.464 48.000,100.800 48.000 C 100.119 48.000,100.000 47.733,100.000 46.200 C 100.000 44.667,99.881 44.400,99.200 44.400 C 98.558 44.400,98.400 44.133,98.400 43.050 C 98.400 40.567,97.956 39.200,97.150 39.200 C 96.539 39.200,96.400 38.897,96.400 37.563 C 96.400 36.262,96.236 35.882,95.600 35.716 C 95.157 35.600,94.800 35.170,94.800 34.753 C 94.800 34.054,94.426 34.000,89.600 34.000 C 84.667 34.000,84.400 34.041,84.400 34.800 M326.000 36.600 C 326.000 37.333,325.787 37.600,325.200 37.600 C 324.667 37.600,324.400 37.867,324.400 38.400 C 324.400 38.933,324.133 39.200,323.600 39.200 C 323.067 39.200,322.800 39.467,322.800 40.000 C 322.800 40.587,322.533 40.800,321.800 40.800 C 321.000 40.800,320.800 41.000,320.800 41.800 C 320.800 42.533,320.587 42.800,320.000 42.800 C 319.467 42.800,319.200 43.067,319.200 43.600 C 319.200 44.133,318.933 44.400,318.400 44.400 C 317.867 44.400,317.600 44.667,317.600 45.200 C 317.600 45.787,317.333 46.000,316.600 46.000 C 315.636 46.000,315.600 46.093,315.600 48.600 C 315.600 51.107,315.636 51.200,316.600 51.200 C 317.333 51.200,317.600 51.413,317.600 52.000 C 317.600 52.533,317.867 52.800,318.400 52.800 C 318.945 52.800,319.200 53.067,319.200 53.637 C 319.200 54.134,319.520 54.559,319.987 54.681 C 320.419 54.794,320.882 55.227,321.014 55.643 C 321.146 56.059,321.602 56.400,322.027 56.400 C 322.533 56.400,322.800 56.676,322.800 57.200 C 322.800 57.733,323.067 58.000,323.600 58.000 C 324.187 58.000,324.400 58.267,324.400 59.000 C 324.400 59.733,324.613 60.000,325.200 60.000 C 325.733 60.000,326.000 60.267,326.000 60.800 C 326.000 61.387,326.267 61.600,327.000 61.600 C 327.748 61.600,328.000 61.811,328.000 62.437 C 328.000 62.938,328.321 63.359,328.800 63.484 C 329.243 63.600,329.600 64.030,329.600 64.447 C 329.600 64.933,329.883 65.200,330.400 65.200 C 330.933 65.200,331.200 65.467,331.200 66.000 C 331.200 66.587,331.467 66.800,332.200 66.800 C 333.000 66.800,333.200 67.000,333.200 67.800 C 333.200 68.533,333.413 68.800,334.000 68.800 C 334.652 68.800,334.800 69.067,334.800 70.237 C 334.800 71.325,334.989 71.724,335.578 71.878 C 336.005 71.990,336.410 72.468,336.478 72.941 C 336.554 73.479,336.937 73.848,337.500 73.928 C 338.078 74.010,338.400 74.332,338.400 74.828 C 338.400 75.333,338.676 75.600,339.200 75.600 C 339.864 75.600,340.000 75.867,340.000 77.173 C 340.000 78.365,340.183 78.804,340.757 78.986 C 341.173 79.118,341.606 79.581,341.719 80.013 C 341.841 80.480,342.266 80.800,342.763 80.800 C 343.389 80.800,343.600 81.052,343.600 81.800 C 343.600 82.533,343.813 82.800,344.400 82.800 C 345.067 82.800,345.200 83.067,345.200 84.400 C 345.200 85.714,345.338 86.000,345.972 86.000 C 346.468 86.000,346.790 86.322,346.872 86.900 C 346.954 87.478,347.322 87.846,347.900 87.928 C 348.659 88.036,348.800 88.302,348.800 89.628 C 348.800 90.933,348.936 91.200,349.600 91.200 C 350.145 91.200,350.400 91.467,350.400 92.037 C 350.400 92.538,350.721 92.959,351.200 93.084 C 351.708 93.217,352.000 93.630,352.000 94.214 C 352.000 95.660,352.421 96.400,353.243 96.400 C 353.874 96.400,354.000 96.701,354.000 98.200 C 354.000 99.733,354.119 100.000,354.800 100.000 C 355.449 100.000,355.600 100.267,355.600 101.409 C 355.600 102.523,355.809 102.912,356.600 103.273 C 357.414 103.644,357.600 104.014,357.600 105.264 C 357.600 106.533,357.739 106.800,358.400 106.800 C 358.987 106.800,359.200 107.067,359.200 107.800 C 359.200 108.525,359.415 108.800,359.980 108.800 C 360.649 108.800,360.777 109.127,360.880 111.100 C 360.981 113.040,361.141 113.462,361.900 113.795 C 362.604 114.104,362.800 114.518,362.800 115.695 C 362.800 116.933,362.942 117.200,363.600 117.200 C 364.281 117.200,364.400 117.467,364.400 119.000 C 364.400 120.516,364.523 120.800,365.177 120.800 C 365.805 120.800,365.978 121.126,366.077 122.500 C 366.179 123.913,366.352 124.222,367.100 124.328 C 367.927 124.445,368.000 124.665,368.000 127.028 C 368.000 129.333,368.083 129.600,368.800 129.600 C 369.512 129.600,369.600 129.867,369.600 132.037 C 369.600 134.138,369.710 134.504,370.400 134.684 C 371.049 134.854,371.200 135.230,371.200 136.673 C 371.200 138.696,371.754 140.000,372.614 140.000 C 373.069 140.000,373.200 140.583,373.200 142.600 C 373.200 144.933,373.282 145.200,374.000 145.200 C 374.734 145.200,374.800 145.467,374.800 148.437 C 374.800 151.338,374.883 151.697,375.600 151.884 C 376.308 152.069,376.400 152.430,376.400 155.014 C 376.400 158.454,376.622 159.200,377.643 159.200 C 378.338 159.200,378.400 159.546,378.400 163.437 C 378.400 167.338,378.464 167.692,379.200 167.884 C 379.955 168.081,380.000 168.430,380.000 174.047 C 380.000 179.733,380.036 180.000,380.800 180.000 C 381.590 180.000,381.600 180.267,381.600 201.800 C 381.600 223.333,381.590 223.600,380.800 223.600 C 380.036 223.600,380.000 223.867,380.000 229.600 C 380.000 235.333,379.964 235.600,379.200 235.600 C 378.449 235.600,378.400 235.867,378.400 239.972 C 378.400 244.202,378.371 244.349,377.500 244.472 C 376.660 244.592,376.592 244.822,376.483 247.942 C 376.381 250.870,376.269 251.309,375.583 251.489 C 374.884 251.671,374.800 252.054,374.800 255.047 C 374.800 258.133,374.736 258.400,374.000 258.400 C 373.282 258.400,373.200 258.667,373.200 261.000 C 373.200 263.284,373.108 263.600,372.443 263.600 C 371.493 263.600,371.200 264.351,371.200 266.786 C 371.200 268.370,371.060 268.743,370.400 268.916 C 369.710 269.096,369.600 269.462,369.600 271.563 C 369.600 273.733,369.512 274.000,368.800 274.000 C 368.082 274.000,368.000 274.267,368.000 276.600 C 368.000 279.107,367.964 279.200,367.000 279.200 C 366.081 279.200,366.000 279.347,366.000 281.000 C 366.000 282.533,365.881 282.800,365.200 282.800 C 364.536 282.800,364.400 283.067,364.400 284.373 C 364.400 285.595,364.221 286.003,363.600 286.200 C 362.979 286.397,362.800 286.805,362.800 288.027 C 362.800 289.304,362.657 289.600,362.043 289.600 C 361.188 289.600,360.800 290.344,360.800 291.986 C 360.800 292.770,360.560 293.169,360.000 293.316 C 359.382 293.477,359.200 293.862,359.200 295.000 C 359.200 296.138,359.018 296.523,358.400 296.684 C 357.773 296.848,357.600 297.230,357.600 298.447 C 357.600 299.704,357.456 300.000,356.843 300.000 C 355.981 300.000,355.600 300.745,355.600 302.433 C 355.600 303.333,355.417 303.600,354.800 303.600 C 354.137 303.600,354.000 303.867,354.000 305.153 C 354.000 306.389,353.830 306.751,353.170 306.924 C 352.714 307.043,352.247 307.497,352.133 307.933 C 352.019 308.369,351.583 308.816,351.163 308.926 C 350.586 309.076,350.400 309.485,350.400 310.600 C 350.400 311.738,350.218 312.123,349.600 312.284 C 348.976 312.447,348.800 312.830,348.800 314.019 C 348.800 315.296,348.654 315.565,347.900 315.672 C 347.322 315.754,346.954 316.122,346.872 316.700 C 346.790 317.278,346.468 317.600,345.972 317.600 C 345.338 317.600,345.200 317.886,345.200 319.200 C 345.200 320.533,345.067 320.800,344.400 320.800 C 343.813 320.800,343.600 321.067,343.600 321.800 C 343.600 322.548,343.389 322.800,342.763 322.800 C 342.275 322.800,341.842 323.119,341.726 323.563 C 341.616 323.983,341.183 324.416,340.763 324.526 C 340.169 324.681,340.000 325.088,340.000 326.363 C 340.000 327.733,339.870 328.000,339.200 328.000 C 338.667 328.000,338.400 328.267,338.400 328.800 C 338.400 329.337,338.133 329.600,337.590 329.600 C 337.094 329.600,336.633 329.988,336.400 330.600 C 336.191 331.150,335.745 331.600,335.410 331.600 C 335.067 331.600,334.800 331.950,334.800 332.400 C 334.800 332.933,334.533 333.200,334.000 333.200 C 333.336 333.200,333.200 333.467,333.200 334.772 C 333.200 336.098,333.059 336.364,332.300 336.472 C 331.722 336.554,331.354 336.922,331.272 337.500 C 331.190 338.078,330.868 338.400,330.372 338.400 C 329.867 338.400,329.600 338.676,329.600 339.200 C 329.600 339.733,329.333 340.000,328.800 340.000 C 328.282 340.000,328.000 340.267,328.000 340.757 C 328.000 341.230,327.626 341.607,327.000 341.764 C 326.354 341.926,326.000 342.296,326.000 342.808 C 326.000 343.333,325.731 343.600,325.200 343.600 C 324.667 343.600,324.400 343.867,324.400 344.400 C 324.400 344.933,324.133 345.200,323.600 345.200 C 323.082 345.200,322.800 345.467,322.800 345.957 C 322.800 346.430,322.426 346.807,321.800 346.964 C 321.154 347.126,320.800 347.496,320.800 348.008 C 320.800 348.533,320.531 348.800,320.000 348.800 C 319.467 348.800,319.200 349.067,319.200 349.600 C 319.200 350.124,318.933 350.400,318.428 350.400 C 317.932 350.400,317.610 350.722,317.528 351.300 C 317.446 351.878,317.078 352.246,316.500 352.328 C 315.123 352.523,315.201 355.068,316.600 355.600 C 317.150 355.809,317.600 356.255,317.600 356.590 C 317.600 356.933,317.950 357.200,318.400 357.200 C 318.987 357.200,319.200 357.467,319.200 358.200 C 319.200 358.933,319.413 359.200,320.000 359.200 C 320.533 359.200,320.800 359.467,320.800 360.000 C 320.800 360.587,321.067 360.800,321.800 360.800 C 322.600 360.800,322.800 361.000,322.800 361.800 C 322.800 362.533,323.013 362.800,323.600 362.800 C 324.133 362.800,324.400 363.067,324.400 363.600 C 324.400 364.133,324.667 364.400,325.200 364.400 C 325.733 364.400,326.000 364.667,326.000 365.200 C 326.000 365.781,326.267 366.000,326.972 366.000 C 327.676 366.000,327.980 366.249,328.072 366.900 C 328.177 367.638,328.453 367.800,329.600 367.800 C 330.747 367.800,331.023 367.638,331.128 366.900 C 331.220 366.249,331.524 366.000,332.228 366.000 C 332.933 366.000,333.200 365.781,333.200 365.200 C 333.200 364.667,333.467 364.400,334.000 364.400 C 334.533 364.400,334.800 364.133,334.800 363.600 C 334.800 363.067,335.067 362.800,335.600 362.800 C 336.187 362.800,336.400 362.533,336.400 361.800 C 336.400 361.000,336.600 360.800,337.400 360.800 C 338.133 360.800,338.400 360.587,338.400 360.000 C 338.400 359.467,338.667 359.200,339.200 359.200 C 339.787 359.200,340.000 358.933,340.000 358.200 C 340.000 357.467,340.213 357.200,340.800 357.200 C 341.333 357.200,341.600 356.933,341.600 356.400 C 341.600 355.855,341.867 355.600,342.437 355.600 C 342.925 355.600,343.358 355.281,343.474 354.837 C 343.584 354.417,344.017 353.984,344.437 353.874 C 344.881 353.758,345.200 353.325,345.200 352.837 C 345.200 352.267,345.455 352.000,346.000 352.000 C 346.533 352.000,346.800 351.733,346.800 351.200 C 346.800 350.683,347.067 350.400,347.553 350.400 C 348.321 350.400,348.784 349.392,348.795 347.700 C 348.798 347.068,349.039 346.800,349.600 346.800 C 350.133 346.800,350.400 346.533,350.400 346.000 C 350.400 345.467,350.667 345.200,351.200 345.200 C 351.724 345.200,352.000 344.933,352.000 344.428 C 352.000 343.932,352.322 343.610,352.900 343.528 C 353.463 343.448,353.846 343.079,353.922 342.541 C 353.990 342.068,354.395 341.590,354.822 341.478 C 355.411 341.324,355.600 340.925,355.600 339.837 C 355.600 338.667,355.748 338.400,356.400 338.400 C 356.987 338.400,357.200 338.133,357.200 337.400 C 357.200 336.600,357.400 336.400,358.200 336.400 C 358.913 336.400,359.200 336.184,359.200 335.647 C 359.200 335.230,359.557 334.800,360.000 334.684 C 360.636 334.518,360.800 334.138,360.800 332.837 C 360.800 331.458,360.928 331.200,361.613 331.200 C 362.059 331.200,362.543 330.885,362.686 330.500 C 362.830 330.115,363.274 329.565,363.674 329.277 C 364.134 328.946,364.400 328.250,364.400 327.377 C 364.400 326.267,364.555 326.000,365.200 326.000 C 365.717 326.000,366.000 325.733,366.000 325.247 C 366.000 324.832,366.355 324.400,366.789 324.287 C 367.349 324.141,367.654 323.605,367.840 322.440 C 368.039 321.197,368.284 320.800,368.851 320.800 C 369.472 320.800,369.600 320.492,369.600 319.000 C 369.600 317.467,369.719 317.200,370.400 317.200 C 370.933 317.200,371.200 316.933,371.200 316.400 C 371.200 315.875,371.467 315.600,371.975 315.600 C 372.588 315.600,372.808 315.222,373.021 313.800 C 373.231 312.398,373.458 312.000,374.045 312.000 C 374.655 312.000,374.800 311.702,374.800 310.447 C 374.800 309.230,374.973 308.848,375.600 308.684 C 376.233 308.519,376.400 308.138,376.400 306.865 C 376.400 305.501,376.537 305.236,377.300 305.128 C 378.048 305.022,378.221 304.713,378.323 303.300 C 378.422 301.926,378.595 301.600,379.223 301.600 C 379.861 301.600,380.000 301.318,380.000 300.027 C 380.000 298.805,380.179 298.397,380.800 298.200 C 381.421 298.003,381.600 297.595,381.600 296.373 C 381.600 295.258,381.771 294.800,382.186 294.800 C 383.052 294.800,383.600 293.492,383.600 291.426 C 383.600 289.867,383.717 289.600,384.400 289.600 C 385.081 289.600,385.200 289.333,385.200 287.800 C 385.200 286.267,385.319 286.000,386.000 286.000 C 386.718 286.000,386.800 285.733,386.800 283.400 C 386.800 280.893,386.836 280.800,387.800 280.800 C 388.764 280.800,388.800 280.707,388.800 278.200 C 388.800 275.867,388.882 275.600,389.600 275.600 C 390.318 275.600,390.400 275.333,390.400 273.000 C 390.400 270.667,390.482 270.400,391.200 270.400 C 391.917 270.400,392.000 270.133,392.000 267.828 C 392.000 265.465,392.073 265.245,392.900 265.128 C 393.738 265.009,393.808 264.775,393.915 261.743 C 394.016 258.896,394.130 258.459,394.815 258.280 C 395.518 258.096,395.600 257.716,395.600 254.637 C 395.600 251.467,395.662 251.200,396.400 251.200 C 397.149 251.200,397.200 250.933,397.200 247.043 C 397.200 242.943,397.214 242.883,398.200 242.636 L 399.200 242.385 399.200 236.392 C 399.200 232.664,399.351 230.400,399.600 230.400 C 399.863 230.400,400.000 220.600,400.000 201.800 C 400.000 183.510,399.860 173.200,399.610 173.200 C 399.380 173.200,399.176 170.716,399.110 167.100 C 399.002 161.117,398.983 160.998,398.100 160.872 C 397.232 160.749,397.200 160.594,397.200 156.572 C 397.200 152.667,397.149 152.400,396.400 152.400 C 395.659 152.400,395.600 152.133,395.600 148.800 C 395.600 145.491,395.537 145.200,394.816 145.200 C 394.110 145.200,394.021 144.871,393.916 141.900 C 393.808 138.823,393.739 138.591,392.900 138.472 C 392.073 138.355,392.000 138.135,392.000 135.772 C 392.000 133.467,391.917 133.200,391.200 133.200 C 390.482 133.200,390.400 132.933,390.400 130.600 C 390.400 128.267,390.318 128.000,389.600 128.000 C 388.882 128.000,388.800 127.733,388.800 125.400 C 388.800 122.893,388.764 122.800,387.800 122.800 C 386.836 122.800,386.800 122.707,386.800 120.200 C 386.800 117.867,386.718 117.600,386.000 117.600 C 385.319 117.600,385.200 117.333,385.200 115.800 C 385.200 114.267,385.081 114.000,384.400 114.000 C 383.726 114.000,383.599 113.732,383.595 112.300 C 383.587 109.830,383.221 108.800,382.353 108.800 C 381.727 108.800,381.600 108.496,381.600 107.000 C 381.600 105.467,381.481 105.200,380.800 105.200 C 380.130 105.200,380.000 104.933,380.000 103.563 C 380.000 102.277,379.833 101.881,379.222 101.722 C 378.663 101.575,378.409 101.107,378.322 100.059 C 378.225 98.896,378.018 98.574,377.300 98.472 C 376.521 98.362,376.400 98.105,376.400 96.572 C 376.400 95.067,376.280 94.800,375.600 94.800 C 374.930 94.800,374.800 94.533,374.800 93.163 C 374.800 91.882,374.632 91.481,374.029 91.323 C 373.500 91.185,373.174 90.630,372.993 89.561 C 372.794 88.383,372.542 88.000,371.965 88.000 C 371.416 88.000,371.200 87.718,371.200 87.000 C 371.200 86.267,370.987 86.000,370.400 86.000 C 369.733 86.000,369.600 85.733,369.600 84.400 C 369.600 83.099,369.459 82.800,368.845 82.800 C 368.258 82.800,368.031 82.402,367.821 81.000 C 367.608 79.578,367.388 79.200,366.775 79.200 C 366.267 79.200,366.000 78.925,366.000 78.400 C 366.000 77.867,365.733 77.600,365.200 77.600 C 364.530 77.600,364.400 77.333,364.400 75.963 C 364.400 74.688,364.231 74.281,363.637 74.126 C 363.217 74.016,362.781 73.569,362.667 73.133 C 362.553 72.697,362.086 72.243,361.630 72.124 C 360.991 71.957,360.800 71.587,360.800 70.516 C 360.800 69.462,360.606 69.075,360.000 68.916 C 359.560 68.801,359.200 68.371,359.200 67.961 C 359.200 67.499,358.819 67.120,358.200 66.964 C 357.574 66.807,357.200 66.430,357.200 65.957 C 357.200 65.467,356.918 65.200,356.400 65.200 C 355.733 65.200,355.600 64.933,355.600 63.600 C 355.600 62.286,355.462 62.000,354.828 62.000 C 354.332 62.000,354.010 61.678,353.928 61.100 C 353.846 60.522,353.478 60.154,352.900 60.072 C 352.322 59.990,352.000 59.668,352.000 59.172 C 352.000 58.667,351.724 58.400,351.200 58.400 C 350.613 58.400,350.400 58.133,350.400 57.400 C 350.400 56.667,350.187 56.400,349.600 56.400 C 349.021 56.400,348.800 56.133,348.800 55.433 C 348.800 53.941,348.387 53.200,347.557 53.200 C 347.016 53.200,346.800 52.914,346.800 52.200 C 346.800 51.467,346.587 51.200,346.000 51.200 C 345.467 51.200,345.200 50.933,345.200 50.400 C 345.200 49.867,344.933 49.600,344.400 49.600 C 343.867 49.600,343.600 49.333,343.600 48.800 C 343.600 48.213,343.333 48.000,342.600 48.000 C 341.800 48.000,341.600 47.800,341.600 47.000 C 341.600 46.267,341.387 46.000,340.800 46.000 C 340.267 46.000,340.000 45.733,340.000 45.200 C 340.000 44.667,339.733 44.400,339.200 44.400 C 338.667 44.400,338.400 44.133,338.400 43.600 C 338.400 43.013,338.133 42.800,337.400 42.800 C 336.600 42.800,336.400 42.600,336.400 41.800 C 336.400 41.067,336.187 40.800,335.600 40.800 C 335.067 40.800,334.800 40.533,334.800 40.000 C 334.800 39.467,334.533 39.200,334.000 39.200 C 333.467 39.200,333.200 38.933,333.200 38.400 C 333.200 37.813,332.933 37.600,332.200 37.600 C 331.400 37.600,331.200 37.400,331.200 36.600 C 331.200 35.636,331.107 35.600,328.600 35.600 C 326.093 35.600,326.000 35.636,326.000 36.600 M280.800 88.800 C 280.800 89.333,280.533 89.600,280.000 89.600 C 279.467 89.600,279.200 89.867,279.200 90.400 C 279.200 90.933,278.933 91.200,278.400 91.200 C 277.813 91.200,277.600 91.467,277.600 92.200 C 277.600 93.000,277.400 93.200,276.600 93.200 C 275.867 93.200,275.600 93.413,275.600 94.000 C 275.600 94.533,275.333 94.800,274.800 94.800 C 274.267 94.800,274.000 95.067,274.000 95.600 C 274.000 96.131,273.733 96.400,273.208 96.400 C 272.696 96.400,272.326 96.754,272.164 97.400 C 272.007 98.026,271.630 98.400,271.157 98.400 C 270.492 98.400,270.400 98.716,270.400 101.000 C 270.400 103.280,270.493 103.600,271.153 103.600 C 271.570 103.600,272.000 103.957,272.116 104.400 C 272.241 104.879,272.662 105.200,273.163 105.200 C 273.733 105.200,274.000 105.455,274.000 106.000 C 274.000 106.524,274.267 106.800,274.772 106.800 C 275.268 106.800,275.590 107.122,275.672 107.700 C 275.754 108.278,276.122 108.646,276.700 108.728 C 277.278 108.810,277.600 109.132,277.600 109.628 C 277.600 110.133,277.876 110.400,278.400 110.400 C 278.933 110.400,279.200 110.667,279.200 111.200 C 279.200 111.733,279.467 112.000,280.000 112.000 C 280.587 112.000,280.800 112.267,280.800 113.000 C 280.800 113.800,281.000 114.000,281.800 114.000 C 282.700 114.000,282.800 114.160,282.800 115.600 C 282.800 116.933,282.933 117.200,283.600 117.200 C 284.145 117.200,284.400 117.467,284.400 118.037 C 284.400 118.538,284.721 118.959,285.200 119.084 C 285.643 119.200,286.000 119.630,286.000 120.047 C 286.000 120.584,286.287 120.800,287.000 120.800 C 287.800 120.800,288.000 121.000,288.000 121.800 C 288.000 122.533,288.213 122.800,288.800 122.800 C 289.467 122.800,289.600 123.067,289.600 124.400 C 289.600 125.714,289.738 126.000,290.372 126.000 C 290.868 126.000,291.190 126.322,291.272 126.900 C 291.354 127.478,291.722 127.846,292.300 127.928 C 293.059 128.036,293.200 128.302,293.200 129.628 C 293.200 130.933,293.336 131.200,294.000 131.200 C 294.670 131.200,294.800 131.467,294.800 132.837 C 294.800 134.138,294.964 134.518,295.600 134.684 C 296.043 134.800,296.400 135.230,296.400 135.647 C 296.400 136.184,296.687 136.400,297.400 136.400 C 298.319 136.400,298.400 136.547,298.400 138.200 C 298.400 139.733,298.519 140.000,299.200 140.000 C 299.864 140.000,300.000 140.267,300.000 141.573 C 300.000 142.779,300.181 143.204,300.777 143.393 C 301.327 143.567,301.590 144.072,301.677 145.120 C 301.775 146.305,301.980 146.626,302.700 146.728 C 303.479 146.838,303.600 147.095,303.600 148.628 C 303.600 150.133,303.720 150.400,304.400 150.400 C 305.112 150.400,305.200 150.667,305.200 152.837 C 305.200 154.938,305.310 155.304,306.000 155.484 C 306.543 155.626,306.801 156.032,306.804 156.747 C 306.815 159.243,307.294 160.800,308.052 160.800 C 308.706 160.800,308.800 161.127,308.800 163.400 C 308.800 165.733,308.882 166.000,309.600 166.000 C 310.334 166.000,310.400 166.267,310.400 169.237 C 310.400 172.138,310.483 172.497,311.200 172.684 C 311.892 172.865,312.000 173.230,312.000 175.391 C 312.000 179.627,312.399 181.600,313.254 181.600 C 313.956 181.600,314.000 182.056,314.000 189.400 C 314.000 196.933,314.027 197.200,314.800 197.200 C 315.552 197.200,315.600 197.467,315.600 201.600 C 315.600 205.733,315.552 206.000,314.800 206.000 C 314.027 206.000,314.000 206.267,314.000 214.000 C 314.000 221.547,313.958 222.000,313.252 222.000 C 312.369 222.000,312.011 223.605,312.004 227.604 C 312.001 229.772,311.866 230.291,311.200 230.707 C 310.508 231.139,310.400 231.640,310.400 234.403 C 310.400 237.333,310.333 237.600,309.600 237.600 C 308.882 237.600,308.800 237.867,308.800 240.200 C 308.800 242.476,308.706 242.800,308.050 242.800 C 307.244 242.800,306.800 244.167,306.800 246.650 C 306.800 247.733,306.642 248.000,306.000 248.000 C 305.282 248.000,305.200 248.267,305.200 250.600 C 305.200 252.933,305.118 253.200,304.400 253.200 C 303.736 253.200,303.600 253.467,303.600 254.772 C 303.600 256.098,303.459 256.364,302.700 256.472 C 301.952 256.578,301.779 256.887,301.677 258.300 C 301.578 259.674,301.405 260.000,300.777 260.000 C 300.123 260.000,300.000 260.284,300.000 261.800 C 300.000 263.333,299.881 263.600,299.200 263.600 C 298.536 263.600,298.400 263.867,298.400 265.172 C 298.400 266.498,298.259 266.764,297.500 266.872 C 296.937 266.952,296.554 267.321,296.478 267.859 C 296.410 268.332,296.005 268.810,295.578 268.922 C 294.985 269.077,294.800 269.476,294.800 270.600 C 294.800 271.738,294.618 272.123,294.000 272.284 C 293.373 272.448,293.200 272.830,293.200 274.047 C 293.200 275.437,293.095 275.600,292.200 275.600 C 291.400 275.600,291.200 275.800,291.200 276.600 C 291.200 277.333,290.987 277.600,290.400 277.600 C 289.867 277.600,289.600 277.867,289.600 278.400 C 289.600 278.933,289.333 279.200,288.800 279.200 C 288.119 279.200,288.000 279.467,288.000 281.000 C 288.000 282.653,287.919 282.800,287.000 282.800 C 286.267 282.800,286.000 283.013,286.000 283.600 C 286.000 284.133,285.733 284.400,285.200 284.400 C 284.676 284.400,284.400 284.667,284.400 285.173 C 284.400 285.598,284.040 286.060,283.600 286.200 C 283.160 286.340,282.800 286.802,282.800 287.227 C 282.800 287.719,282.525 288.000,282.043 288.000 C 281.213 288.000,280.800 288.741,280.800 290.233 C 280.800 290.933,280.579 291.200,280.000 291.200 C 279.413 291.200,279.200 291.467,279.200 292.200 C 279.200 292.933,278.987 293.200,278.400 293.200 C 277.867 293.200,277.600 293.467,277.600 294.000 C 277.600 294.587,277.333 294.800,276.600 294.800 C 275.867 294.800,275.600 295.013,275.600 295.600 C 275.600 296.133,275.333 296.400,274.800 296.400 C 274.213 296.400,274.000 296.667,274.000 297.400 C 274.000 298.148,273.789 298.400,273.163 298.400 C 272.662 298.400,272.241 298.721,272.116 299.200 C 272.000 299.643,271.570 300.000,271.153 300.000 C 270.042 300.000,270.051 303.184,271.163 303.474 C 271.583 303.584,272.016 304.017,272.126 304.437 C 272.242 304.881,272.675 305.200,273.163 305.200 C 273.733 305.200,274.000 305.455,274.000 306.000 C 274.000 306.533,274.267 306.800,274.800 306.800 C 275.387 306.800,275.600 307.067,275.600 307.800 C 275.600 308.600,275.800 308.800,276.600 308.800 C 277.333 308.800,277.600 309.013,277.600 309.600 C 277.600 310.133,277.867 310.400,278.400 310.400 C 278.933 310.400,279.200 310.667,279.200 311.200 C 279.200 311.733,279.467 312.000,280.000 312.000 C 280.587 312.000,280.800 312.267,280.800 313.000 C 280.800 313.787,281.003 314.000,281.753 314.000 C 282.370 314.000,282.781 314.282,282.916 314.800 C 283.213 315.936,285.587 315.936,285.884 314.800 C 285.999 314.360,286.347 314.000,286.657 314.000 C 286.966 314.000,287.391 313.550,287.600 313.000 C 287.833 312.388,288.294 312.000,288.790 312.000 C 289.333 312.000,289.600 311.737,289.600 311.200 C 289.600 310.667,289.867 310.400,290.400 310.400 C 290.924 310.400,291.200 310.133,291.200 309.627 C 291.200 309.202,291.560 308.740,292.000 308.600 C 292.440 308.460,292.800 308.084,292.800 307.763 C 292.800 307.443,293.250 307.009,293.800 306.800 C 294.350 306.591,294.800 306.166,294.800 305.857 C 294.800 305.547,295.160 305.199,295.600 305.084 C 296.236 304.918,296.400 304.538,296.400 303.237 C 296.400 301.758,296.496 301.600,297.400 301.600 C 298.133 301.600,298.400 301.387,298.400 300.800 C 298.400 300.267,298.667 300.000,299.200 300.000 C 299.733 300.000,300.000 299.733,300.000 299.200 C 300.000 298.667,300.267 298.400,300.800 298.400 C 301.381 298.400,301.600 298.133,301.600 297.428 C 301.600 296.724,301.849 296.420,302.500 296.328 C 303.223 296.225,303.424 295.905,303.524 294.700 C 303.621 293.525,303.816 293.200,304.424 293.200 C 304.985 293.200,305.200 292.923,305.200 292.200 C 305.200 291.467,305.413 291.200,306.000 291.200 C 306.533 291.200,306.800 290.933,306.800 290.400 C 306.800 289.960,307.064 289.600,307.386 289.600 C 308.123 289.600,308.800 288.368,308.800 287.026 C 308.800 286.267,309.008 286.000,309.600 286.000 C 310.117 286.000,310.400 285.733,310.400 285.247 C 310.400 284.830,310.757 284.400,311.200 284.284 C 311.836 284.118,312.000 283.738,312.000 282.437 C 312.000 280.958,312.096 280.800,313.000 280.800 C 313.919 280.800,314.000 280.653,314.000 279.000 C 314.000 277.467,314.119 277.200,314.800 277.200 C 315.467 277.200,315.600 276.933,315.600 275.600 C 315.600 274.267,315.733 274.000,316.400 274.000 C 317.081 274.000,317.200 273.733,317.200 272.200 C 317.200 270.547,317.281 270.400,318.200 270.400 C 319.119 270.400,319.200 270.253,319.200 268.600 C 319.200 267.067,319.319 266.800,320.000 266.800 C 320.664 266.800,320.800 266.533,320.800 265.228 C 320.800 263.902,320.941 263.636,321.700 263.528 C 322.444 263.422,322.621 263.112,322.721 261.741 C 322.812 260.493,323.035 260.032,323.621 259.879 C 324.285 259.705,324.400 259.317,324.400 257.237 C 324.400 255.067,324.488 254.800,325.200 254.800 C 325.917 254.800,326.000 254.533,326.000 252.228 C 326.000 249.865,326.073 249.645,326.900 249.528 C 327.706 249.413,327.812 249.144,327.918 246.942 C 328.016 244.895,328.167 244.450,328.818 244.279 C 329.517 244.096,329.600 243.712,329.600 240.637 C 329.600 237.467,329.662 237.200,330.400 237.200 C 331.149 237.200,331.200 236.933,331.200 233.000 C 331.200 229.146,331.262 228.800,331.957 228.800 C 333.088 228.800,333.200 228.110,333.200 221.167 C 333.200 215.067,333.234 214.800,334.000 214.800 C 334.784 214.800,334.800 214.533,334.800 201.800 C 334.800 189.067,334.784 188.800,334.000 188.800 C 333.234 188.800,333.200 188.533,333.200 182.433 C 333.200 175.490,333.088 174.800,331.957 174.800 C 331.260 174.800,331.200 174.450,331.200 170.400 C 331.200 166.267,331.152 166.000,330.400 166.000 C 329.663 166.000,329.600 165.733,329.600 162.600 C 329.600 159.494,329.532 159.200,328.819 159.200 C 328.141 159.200,328.023 158.872,327.919 156.700 C 327.812 154.455,327.708 154.187,326.900 154.072 C 326.073 153.955,326.000 153.735,326.000 151.372 C 326.000 149.067,325.917 148.800,325.200 148.800 C 324.488 148.800,324.400 148.533,324.400 146.363 C 324.400 144.283,324.285 143.895,323.621 143.721 C 323.035 143.568,322.812 143.107,322.721 141.859 C 322.621 140.488,322.444 140.178,321.700 140.072 C 320.921 139.962,320.800 139.705,320.800 138.172 C 320.800 136.667,320.680 136.400,320.000 136.400 C 319.297 136.400,319.200 136.133,319.200 134.191 C 319.200 132.224,319.091 131.933,318.200 131.527 C 317.650 131.277,317.200 130.740,317.200 130.336 C 317.200 129.867,316.910 129.600,316.400 129.600 C 315.719 129.600,315.600 129.333,315.600 127.800 C 315.600 126.267,315.481 126.000,314.800 126.000 C 314.133 126.000,314.000 125.733,314.000 124.400 C 314.000 122.960,313.900 122.800,313.000 122.800 C 312.081 122.800,312.000 122.653,312.000 121.000 C 312.000 119.467,311.881 119.200,311.200 119.200 C 310.667 119.200,310.400 118.933,310.400 118.400 C 310.400 117.867,310.133 117.600,309.600 117.600 C 308.983 117.600,308.800 117.333,308.800 116.433 C 308.800 114.745,308.419 114.000,307.557 114.000 C 307.075 114.000,306.800 113.719,306.800 113.227 C 306.800 112.802,306.440 112.340,306.000 112.200 C 305.560 112.060,305.200 111.598,305.200 111.173 C 305.200 110.667,304.924 110.400,304.400 110.400 C 303.751 110.400,303.600 110.133,303.600 108.991 C 303.600 107.877,303.391 107.488,302.600 107.127 C 302.050 106.877,301.600 106.340,301.600 105.936 C 301.600 105.467,301.310 105.200,300.800 105.200 C 300.267 105.200,300.000 104.933,300.000 104.400 C 300.000 103.876,299.733 103.600,299.228 103.600 C 298.732 103.600,298.410 103.278,298.328 102.700 C 298.246 102.122,297.878 101.754,297.300 101.672 C 296.541 101.564,296.400 101.298,296.400 99.972 C 296.400 98.667,296.264 98.400,295.600 98.400 C 295.160 98.400,294.800 98.136,294.800 97.814 C 294.800 97.492,294.452 97.042,294.027 96.814 C 293.602 96.587,293.140 96.041,293.000 95.600 C 292.860 95.160,292.398 94.800,291.973 94.800 C 291.467 94.800,291.200 94.524,291.200 94.000 C 291.200 93.467,290.933 93.200,290.400 93.200 C 289.855 93.200,289.600 92.933,289.600 92.363 C 289.600 91.866,289.280 91.441,288.813 91.319 C 288.381 91.206,287.918 90.773,287.786 90.357 C 287.654 89.941,287.198 89.600,286.773 89.600 C 286.267 89.600,286.000 89.324,286.000 88.800 C 286.000 88.082,285.733 88.000,283.400 88.000 C 281.067 88.000,280.800 88.082,280.800 88.800 M225.316 156.400 C 225.149 157.037,224.769 157.200,223.453 157.202 C 218.584 157.209,215.093 157.724,214.899 158.463 C 214.749 159.038,214.320 159.200,212.953 159.200 C 211.467 159.200,211.200 159.322,211.200 160.000 C 211.200 160.667,210.933 160.800,209.600 160.800 C 208.160 160.800,208.000 160.900,208.000 161.800 C 208.000 162.719,207.853 162.800,206.200 162.800 C 204.667 162.800,204.400 162.919,204.400 163.600 C 204.400 164.264,204.133 164.400,202.827 164.400 C 201.635 164.400,201.196 164.583,201.014 165.157 C 200.882 165.573,200.419 166.006,199.987 166.119 C 199.520 166.241,199.200 166.666,199.200 167.163 C 199.200 167.733,198.945 168.000,198.400 168.000 C 197.867 168.000,197.600 168.267,197.600 168.800 C 197.600 169.387,197.333 169.600,196.600 169.600 C 195.887 169.600,195.600 169.816,195.600 170.353 C 195.600 170.770,195.243 171.200,194.800 171.316 C 194.321 171.441,194.000 171.862,194.000 172.363 C 194.000 172.914,193.744 173.200,193.251 173.200 C 192.691 173.200,192.440 173.590,192.254 174.753 C 192.079 175.847,191.769 176.367,191.203 176.515 C 190.564 176.682,190.400 177.060,190.400 178.363 C 190.400 179.733,190.270 180.000,189.600 180.000 C 189.067 180.000,188.800 180.267,188.800 180.800 C 188.800 181.514,188.532 181.601,186.300 181.605 C 183.111 181.612,182.123 181.887,181.874 182.837 C 181.719 183.431,181.312 183.600,180.037 183.600 C 178.667 183.600,178.400 183.730,178.400 184.400 C 178.400 184.849,178.133 185.200,177.791 185.200 C 177.457 185.200,176.985 185.635,176.743 186.166 C 176.501 186.697,175.964 187.221,175.551 187.329 C 174.992 187.475,174.800 187.893,174.800 188.963 C 174.800 190.133,174.652 190.400,174.000 190.400 C 173.320 190.400,173.200 190.667,173.200 192.172 C 173.200 193.705,173.079 193.962,172.300 194.072 C 171.492 194.187,171.388 194.455,171.281 196.700 C 171.177 198.872,171.059 199.200,170.381 199.200 C 169.686 199.200,169.600 199.488,169.600 201.800 C 169.600 204.133,169.518 204.400,168.800 204.400 C 168.082 204.400,168.000 204.667,168.000 207.000 C 168.000 209.284,167.908 209.600,167.243 209.600 C 166.233 209.600,166.000 210.348,166.000 213.586 C 166.000 215.970,165.901 216.333,165.200 216.516 C 164.502 216.698,164.400 217.062,164.400 219.363 C 164.400 221.702,164.313 222.000,163.628 222.000 C 163.145 222.000,162.791 222.337,162.682 222.900 L 162.509 223.800 162.454 222.900 C 162.417 222.285,162.147 222.000,161.600 222.000 C 160.881 222.000,160.800 221.733,160.800 219.363 C 160.800 217.062,160.698 216.698,160.000 216.516 C 159.299 216.333,159.200 215.970,159.200 213.586 C 159.200 210.348,158.967 209.600,157.957 209.600 C 157.292 209.600,157.200 209.284,157.200 207.000 C 157.200 204.667,157.118 204.400,156.400 204.400 C 155.682 204.400,155.600 204.133,155.600 201.800 C 155.600 199.488,155.514 199.200,154.819 199.200 C 154.141 199.200,154.023 198.872,153.919 196.700 C 153.812 194.455,153.708 194.187,152.900 194.072 C 152.121 193.962,152.000 193.705,152.000 192.172 C 152.000 190.667,151.880 190.400,151.200 190.400 C 150.667 190.400,150.400 190.133,150.400 189.600 C 150.400 189.067,150.133 188.800,149.600 188.800 C 149.008 188.800,148.800 188.533,148.800 187.774 C 148.800 186.001,148.111 185.200,146.586 185.200 C 145.467 185.200,145.200 185.046,145.200 184.400 C 145.200 183.876,144.933 183.600,144.427 183.600 C 144.002 183.600,143.542 183.246,143.404 182.814 C 142.882 181.167,132.123 181.065,131.405 182.700 C 131.096 183.404,130.682 183.600,129.505 183.600 C 128.267 183.600,128.000 183.742,128.000 184.400 C 128.000 184.987,127.733 185.200,127.000 185.200 C 126.287 185.200,126.000 185.416,126.000 185.953 C 126.000 186.370,125.643 186.800,125.200 186.916 C 124.721 187.041,124.400 187.462,124.400 187.963 C 124.400 188.533,124.145 188.800,123.600 188.800 C 122.919 188.800,122.800 189.067,122.800 190.600 C 122.800 192.253,122.719 192.400,121.800 192.400 C 120.905 192.400,120.800 192.563,120.800 193.953 C 120.800 195.170,120.627 195.552,120.000 195.716 C 119.313 195.896,119.200 196.262,119.200 198.316 C 119.200 200.370,119.087 200.736,118.400 200.916 C 117.770 201.081,117.600 201.462,117.600 202.707 C 117.600 206.052,117.138 208.000,116.346 208.000 C 115.677 208.000,115.600 208.349,115.600 211.400 C 115.600 214.533,115.537 214.800,114.800 214.800 C 114.082 214.800,114.000 215.067,114.000 217.400 C 114.000 219.676,113.906 220.000,113.250 220.000 C 112.444 220.000,112.000 221.367,112.000 223.850 C 112.000 224.933,111.842 225.200,111.200 225.200 C 110.466 225.200,110.400 224.933,110.400 221.963 C 110.400 219.062,110.317 218.703,109.600 218.516 C 108.905 218.334,108.800 217.970,108.800 215.753 C 108.800 213.296,108.762 213.200,107.800 213.200 C 106.811 213.200,106.800 213.162,106.800 209.763 C 106.800 206.662,106.722 206.305,106.000 206.116 C 105.305 205.934,105.200 205.570,105.200 203.353 C 105.200 201.087,105.112 200.800,104.419 200.800 C 103.741 200.800,103.623 200.472,103.519 198.300 C 103.412 196.055,103.308 195.787,102.500 195.672 C 101.737 195.564,101.600 195.299,101.600 193.935 C 101.600 192.662,101.433 192.281,100.800 192.116 C 100.173 191.952,100.000 191.570,100.000 190.353 C 100.000 189.085,99.858 188.800,99.228 188.800 C 98.732 188.800,98.410 188.478,98.328 187.900 C 98.246 187.322,97.878 186.954,97.300 186.872 C 96.722 186.790,96.400 186.468,96.400 185.972 C 96.400 185.467,96.124 185.200,95.600 185.200 C 95.067 185.200,94.800 184.933,94.800 184.400 C 94.800 183.720,94.533 183.600,93.028 183.600 C 91.495 183.600,91.238 183.479,91.128 182.700 C 91.009 181.861,90.777 181.792,87.700 181.684 C 84.729 181.579,84.400 181.490,84.400 180.784 C 84.400 180.275,84.128 180.000,83.624 180.000 C 83.016 180.000,82.821 179.675,82.724 178.500 C 82.633 177.397,82.362 176.895,81.700 176.605 C 81.205 176.388,80.800 175.893,80.800 175.505 C 80.800 175.067,80.497 174.800,80.000 174.800 C 79.467 174.800,79.200 174.533,79.200 174.000 C 79.200 173.413,78.933 173.200,78.200 173.200 C 77.400 173.200,77.200 173.000,77.200 172.200 C 77.200 171.467,76.987 171.200,76.400 171.200 C 75.867 171.200,75.600 170.933,75.600 170.400 C 75.600 169.867,75.333 169.600,74.800 169.600 C 74.267 169.600,74.000 169.333,74.000 168.800 C 74.000 168.213,73.733 168.000,73.000 168.000 C 72.200 168.000,72.000 167.800,72.000 167.000 C 72.000 166.287,71.784 166.000,71.247 166.000 C 70.830 166.000,70.400 165.643,70.284 165.200 C 70.118 164.564,69.738 164.400,68.437 164.400 C 67.067 164.400,66.800 164.270,66.800 163.600 C 66.800 162.937,66.533 162.800,65.243 162.800 C 63.917 162.800,63.650 162.652,63.436 161.800 C 63.204 160.876,63.008 160.800,60.839 160.800 C 58.830 160.800,58.463 160.685,58.284 160.000 C 58.089 159.254,57.738 159.200,53.064 159.200 C 48.405 159.200,48.036 159.144,47.800 158.400 C 47.574 157.688,47.195 157.600,44.336 157.600 C 41.462 157.600,41.103 157.684,40.916 158.400 C 40.721 159.146,40.370 159.200,35.716 159.200 C 31.101 159.200,30.710 159.259,30.521 159.981 C 30.354 160.620,29.906 160.784,28.058 160.881 C 26.161 160.981,25.737 161.144,25.405 161.900 C 25.096 162.604,24.682 162.800,23.505 162.800 C 22.267 162.800,22.000 162.942,22.000 163.600 C 22.000 164.187,21.733 164.400,21.000 164.400 C 20.267 164.400,20.000 164.613,20.000 165.200 C 20.000 165.866,19.733 166.000,18.408 166.000 C 17.043 166.000,16.779 166.143,16.564 167.000 C 16.407 167.626,16.030 168.000,15.557 168.000 C 15.067 168.000,14.800 168.282,14.800 168.800 C 14.800 169.333,14.533 169.600,14.000 169.600 C 13.476 169.600,13.200 169.867,13.200 170.372 C 13.200 170.868,12.878 171.190,12.300 171.272 C 11.722 171.354,11.354 171.722,11.272 172.300 C 11.190 172.878,10.868 173.200,10.372 173.200 C 9.867 173.200,9.600 173.476,9.600 174.000 C 9.600 174.533,9.333 174.800,8.800 174.800 C 8.290 174.800,8.000 175.067,8.000 175.536 C 8.000 175.940,7.550 176.477,7.000 176.727 C 6.218 177.083,6.000 177.480,6.000 178.545 C 6.000 179.570,5.802 179.958,5.200 180.116 C 4.564 180.282,4.400 180.662,4.400 181.963 C 4.400 183.333,4.270 183.600,3.600 183.600 C 2.882 183.600,2.800 183.867,2.800 186.200 C 2.800 188.707,2.764 188.800,1.800 188.800 C 0.812 188.800,0.800 188.840,0.800 192.200 C 0.800 194.200,0.635 195.600,0.400 195.600 C 0.147 195.600,0.000 198.467,0.000 203.400 C 0.000 208.333,0.147 211.200,0.400 211.200 C 0.635 211.200,0.800 212.597,0.800 214.592 C 0.800 217.877,0.832 217.993,1.800 218.236 C 2.722 218.467,2.800 218.666,2.800 220.797 C 2.800 222.770,2.917 223.137,3.600 223.316 C 4.218 223.477,4.400 223.862,4.400 225.000 C 4.400 226.124,4.585 226.523,5.178 226.678 C 5.605 226.790,6.010 227.268,6.078 227.741 C 6.154 228.279,6.537 228.648,7.100 228.728 C 7.859 228.836,8.000 229.102,8.000 230.428 C 8.000 231.733,8.136 232.000,8.800 232.000 C 9.345 232.000,9.600 232.267,9.600 232.837 C 9.600 233.325,9.919 233.758,10.363 233.874 C 10.783 233.984,11.216 234.417,11.326 234.837 C 11.442 235.281,11.875 235.600,12.363 235.600 C 12.933 235.600,13.200 235.855,13.200 236.400 C 13.200 236.933,13.467 237.200,14.000 237.200 C 14.537 237.200,14.800 237.467,14.800 238.010 C 14.800 238.506,15.188 238.967,15.800 239.200 C 16.350 239.409,16.800 239.855,16.800 240.190 C 16.800 240.633,17.230 240.800,18.372 240.800 C 19.698 240.800,19.964 240.941,20.072 241.700 C 20.178 242.448,20.487 242.621,21.900 242.723 C 23.274 242.822,23.600 242.995,23.600 243.623 C 23.600 244.259,23.882 244.400,25.153 244.400 C 26.370 244.400,26.752 244.573,26.916 245.200 C 27.096 245.890,27.462 246.000,29.572 246.000 C 31.819 246.000,32.051 246.083,32.402 247.006 L 32.785 248.012 44.492 247.906 L 56.200 247.800 56.328 246.900 C 56.445 246.073,56.665 246.000,59.028 246.000 C 61.333 246.000,61.600 245.917,61.600 245.200 C 61.600 244.488,61.867 244.400,64.037 244.400 C 66.115 244.400,66.505 244.285,66.678 243.622 C 66.790 243.195,67.268 242.790,67.741 242.722 C 68.279 242.646,68.648 242.263,68.728 241.700 C 68.836 240.941,69.102 240.800,70.428 240.800 C 71.733 240.800,72.000 240.664,72.000 240.000 C 72.000 239.413,72.267 239.200,73.000 239.200 C 73.800 239.200,74.000 239.000,74.000 238.200 C 74.000 237.467,74.213 237.200,74.800 237.200 C 75.333 237.200,75.600 236.933,75.600 236.400 C 75.600 235.867,75.867 235.600,76.400 235.600 C 76.933 235.600,77.200 235.333,77.200 234.800 C 77.200 234.213,77.467 234.000,78.200 234.000 C 79.000 234.000,79.200 233.800,79.200 233.000 C 79.200 232.267,79.413 232.000,80.000 232.000 C 80.533 232.000,80.800 231.733,80.800 231.200 C 80.800 230.682,81.067 230.400,81.557 230.400 C 82.419 230.400,82.800 229.655,82.800 227.967 C 82.800 227.067,82.983 226.800,83.600 226.800 C 84.267 226.800,84.400 226.533,84.400 225.200 C 84.400 223.867,84.533 223.600,85.200 223.600 C 85.880 223.600,86.000 223.333,86.000 221.828 C 86.000 220.295,86.121 220.038,86.900 219.928 C 87.708 219.813,87.812 219.545,87.919 217.300 C 88.004 215.509,88.193 214.800,88.586 214.800 C 88.887 214.800,89.224 214.575,89.335 214.300 C 89.446 214.025,89.551 215.195,89.568 216.900 C 89.597 219.723,89.672 220.000,90.400 220.000 C 91.123 220.000,91.200 220.267,91.200 222.767 C 91.200 226.052,91.430 226.800,92.443 226.800 C 93.108 226.800,93.200 227.116,93.200 229.400 C 93.200 231.733,93.282 232.000,94.000 232.000 C 94.681 232.000,94.800 232.267,94.800 233.800 C 94.800 235.316,94.923 235.600,95.577 235.600 C 96.205 235.600,96.378 235.926,96.477 237.300 C 96.579 238.713,96.752 239.022,97.500 239.128 C 98.256 239.235,98.400 239.503,98.400 240.801 C 98.400 241.995,98.582 242.404,99.200 242.600 C 99.640 242.740,100.000 243.129,100.000 243.464 C 100.000 243.800,100.343 244.165,100.763 244.274 C 101.183 244.384,101.616 244.817,101.726 245.237 C 101.881 245.831,102.288 246.000,103.563 246.000 C 104.902 246.000,105.200 246.138,105.200 246.757 C 105.200 247.867,105.910 248.000,111.833 248.000 L 117.200 248.000 117.200 247.000 C 117.200 246.081,117.347 246.000,119.000 246.000 C 120.533 246.000,120.800 245.881,120.800 245.200 C 120.800 244.655,121.067 244.400,121.637 244.400 C 122.125 244.400,122.558 244.081,122.674 243.637 C 122.784 243.217,123.217 242.784,123.637 242.674 C 124.063 242.563,124.400 242.126,124.400 241.684 C 124.400 241.230,124.740 240.804,125.200 240.684 C 125.833 240.519,126.000 240.138,126.000 238.865 C 126.000 237.501,126.137 237.236,126.900 237.128 C 127.708 237.013,127.812 236.745,127.919 234.500 C 128.023 232.328,128.141 232.000,128.819 232.000 C 129.514 232.000,129.600 231.712,129.600 229.400 C 129.600 227.067,129.682 226.800,130.400 226.800 C 131.118 226.800,131.200 226.533,131.200 224.200 C 131.200 221.916,131.292 221.600,131.957 221.600 C 132.970 221.600,133.200 220.852,133.200 217.567 C 133.200 215.067,133.277 214.800,134.000 214.800 C 134.716 214.800,134.800 214.533,134.800 212.247 C 134.800 210.030,134.905 209.666,135.600 209.484 C 136.249 209.314,136.400 208.938,136.400 207.493 C 136.400 205.808,136.454 205.721,137.400 205.902 C 138.342 206.082,138.400 206.241,138.400 208.647 C 138.400 210.933,138.484 211.200,139.200 211.200 C 139.937 211.200,140.000 211.467,140.000 214.573 C 140.000 217.568,140.088 217.974,140.781 218.194 C 141.427 218.399,141.584 218.873,141.681 220.921 C 141.788 223.145,141.893 223.413,142.700 223.528 C 143.548 223.648,143.600 223.841,143.600 226.865 C 143.600 229.738,143.684 230.097,144.400 230.284 C 145.047 230.453,145.200 230.830,145.200 232.247 C 145.200 233.733,145.322 234.000,146.000 234.000 C 146.614 234.000,146.800 234.267,146.800 235.150 C 146.800 237.325,147.303 238.902,148.061 239.100 C 148.467 239.206,148.800 239.632,148.800 240.047 C 148.800 240.533,149.083 240.800,149.600 240.800 C 150.238 240.800,150.400 241.067,150.400 242.120 C 150.400 242.846,150.616 243.656,150.880 243.920 C 151.144 244.184,151.954 244.400,152.680 244.400 C 153.733 244.400,154.000 244.562,154.000 245.200 C 154.000 245.733,154.267 246.000,154.800 246.000 C 155.318 246.000,155.600 246.267,155.600 246.757 C 155.600 247.866,156.311 248.000,162.207 248.000 C 167.746 248.000,169.600 247.651,169.600 246.610 C 169.600 246.267,169.950 246.000,170.400 246.000 C 170.933 246.000,171.200 245.733,171.200 245.200 C 171.200 244.583,171.467 244.400,172.367 244.400 C 174.378 244.400,174.800 244.046,174.800 242.357 C 174.800 241.067,174.937 240.800,175.600 240.800 C 176.133 240.800,176.400 240.533,176.400 240.000 C 176.400 239.550,176.667 239.200,177.010 239.200 C 177.786 239.200,178.400 237.598,178.400 235.574 C 178.400 234.267,178.536 234.000,179.200 234.000 C 179.878 234.000,180.000 233.733,180.000 232.247 C 180.000 230.830,180.153 230.453,180.800 230.284 C 181.516 230.097,181.600 229.738,181.600 226.865 C 181.600 223.841,181.652 223.648,182.500 223.528 C 183.318 223.412,183.411 223.153,183.518 220.700 C 183.622 218.328,183.732 218.000,184.418 218.000 C 185.064 218.000,185.200 217.721,185.200 216.400 C 185.200 215.067,185.333 214.800,186.000 214.800 C 186.674 214.800,186.801 215.068,186.805 216.500 C 186.813 218.970,187.179 220.000,188.047 220.000 C 188.662 220.000,188.800 220.300,188.800 221.637 C 188.800 222.938,188.964 223.318,189.600 223.484 C 190.227 223.648,190.400 224.030,190.400 225.247 C 190.400 226.504,190.544 226.800,191.157 226.800 C 191.630 226.800,192.007 227.174,192.164 227.800 C 192.326 228.446,192.696 228.800,193.208 228.800 C 193.865 228.800,194.000 229.072,194.000 230.400 C 194.000 231.700,194.141 232.000,194.753 232.000 C 195.179 232.000,195.601 232.361,195.724 232.830 C 195.843 233.286,196.314 233.757,196.770 233.876 C 197.239 233.999,197.600 234.421,197.600 234.847 C 197.600 235.459,197.900 235.600,199.200 235.600 C 200.533 235.600,200.800 235.733,200.800 236.400 C 200.800 236.987,201.067 237.200,201.800 237.200 C 202.600 237.200,202.800 237.400,202.800 238.200 C 202.800 238.913,203.016 239.200,203.553 239.200 C 203.970 239.200,204.400 239.557,204.516 240.000 C 204.682 240.636,205.062 240.800,206.363 240.800 C 207.702 240.800,208.000 240.938,208.000 241.557 C 208.000 242.379,208.740 242.800,210.186 242.800 C 210.770 242.800,211.183 243.092,211.316 243.600 C 211.496 244.287,211.862 244.400,213.916 244.400 C 215.970 244.400,216.336 244.513,216.516 245.200 C 216.720 245.979,217.062 246.000,229.563 246.000 C 242.133 246.000,242.400 245.983,242.400 245.200 C 242.400 244.488,242.667 244.400,244.837 244.400 C 246.938 244.400,247.304 244.290,247.484 243.600 C 247.631 243.040,248.030 242.800,248.814 242.800 C 250.456 242.800,251.200 242.412,251.200 241.557 C 251.200 240.938,251.498 240.800,252.837 240.800 C 254.138 240.800,254.518 240.636,254.684 240.000 C 254.800 239.557,255.230 239.200,255.647 239.200 C 256.184 239.200,256.400 238.913,256.400 238.200 C 256.400 237.400,256.600 237.200,257.400 237.200 C 258.133 237.200,258.400 236.987,258.400 236.400 C 258.400 235.748,258.667 235.600,259.837 235.600 C 260.938 235.600,261.324 235.413,261.484 234.800 C 261.599 234.360,261.936 234.000,262.233 234.000 C 262.928 234.000,263.600 232.735,263.600 231.426 C 263.600 230.667,263.808 230.400,264.400 230.400 C 264.933 230.400,265.200 230.133,265.200 229.600 C 265.200 229.067,265.467 228.800,266.000 228.800 C 266.587 228.800,266.800 228.533,266.800 227.800 C 266.800 227.086,267.016 226.800,267.557 226.800 C 268.379 226.800,268.800 226.060,268.800 224.614 C 268.800 224.030,269.092 223.617,269.600 223.484 C 270.236 223.318,270.400 222.938,270.400 221.637 C 270.400 220.267,270.530 220.000,271.200 220.000 C 271.917 220.000,272.000 219.733,272.000 217.428 C 272.000 215.065,272.073 214.845,272.900 214.728 L 273.800 214.600 273.906 201.700 L 274.011 188.800 273.006 188.800 C 272.035 188.800,272.000 188.710,272.000 186.200 C 272.000 183.867,271.918 183.600,271.200 183.600 C 270.519 183.600,270.400 183.333,270.400 181.800 C 270.400 180.284,270.277 180.000,269.623 180.000 C 268.995 180.000,268.822 179.674,268.723 178.300 C 268.621 176.887,268.448 176.578,267.700 176.472 C 267.122 176.390,266.800 176.068,266.800 175.572 C 266.800 175.067,266.524 174.800,266.000 174.800 C 265.333 174.800,265.200 174.533,265.200 173.200 C 265.200 172.033,265.035 171.600,264.590 171.600 C 264.255 171.600,263.809 171.150,263.600 170.600 C 263.367 169.988,262.906 169.600,262.410 169.600 C 261.867 169.600,261.600 169.337,261.600 168.800 C 261.600 168.267,261.333 168.000,260.800 168.000 C 260.282 168.000,260.000 167.733,260.000 167.243 C 260.000 166.381,259.255 166.000,257.567 166.000 C 256.667 166.000,256.400 165.817,256.400 165.200 C 256.400 164.667,256.133 164.400,255.600 164.400 C 255.067 164.400,254.800 164.133,254.800 163.600 C 254.800 162.919,254.533 162.800,253.000 162.800 C 251.347 162.800,251.200 162.719,251.200 161.800 C 251.200 160.905,251.037 160.800,249.647 160.800 C 248.430 160.800,248.048 160.627,247.884 160.000 C 247.719 159.369,247.338 159.200,246.084 159.200 C 244.860 159.200,244.448 159.026,244.295 158.443 C 244.120 157.772,243.530 157.653,239.083 157.397 C 234.644 157.141,234.047 157.021,233.872 156.354 C 233.562 155.167,225.627 155.210,225.316 156.400 M20.000 257.400 C 20.000 259.733,19.918 260.000,19.200 260.000 C 18.464 260.000,18.400 260.267,18.400 263.357 C 18.400 266.603,18.367 266.721,17.400 266.964 C 16.462 267.200,16.400 267.376,16.400 269.808 C 16.400 272.133,16.318 272.400,15.600 272.400 C 14.863 272.400,14.800 272.667,14.800 275.800 C 14.800 278.933,14.737 279.200,14.000 279.200 C 13.282 279.200,13.200 279.467,13.200 281.800 C 13.200 284.080,13.107 284.400,12.447 284.400 C 11.515 284.400,11.213 285.437,11.205 288.653 C 11.201 290.768,11.089 291.136,10.400 291.316 C 9.678 291.505,9.600 291.862,9.600 294.963 C 9.600 298.133,9.538 298.400,8.800 298.400 C 8.083 298.400,8.000 298.667,8.000 300.972 C 8.000 303.335,7.927 303.555,7.100 303.672 C 6.261 303.791,6.192 304.023,6.084 307.100 C 5.979 310.071,5.890 310.400,5.184 310.400 C 4.487 310.400,4.400 310.684,4.400 312.953 C 4.400 315.170,4.295 315.534,3.600 315.716 C 2.878 315.905,2.800 316.262,2.800 319.363 C 2.800 322.780,2.794 322.800,1.781 322.800 C 0.785 322.800,0.765 322.856,0.881 325.300 L 1.000 327.800 2.659 327.921 C 3.907 328.012,4.368 328.235,4.521 328.821 C 4.702 329.512,5.091 329.600,7.963 329.600 C 10.933 329.600,11.200 329.666,11.200 330.400 C 11.200 331.141,11.467 331.200,14.800 331.200 C 18.133 331.200,18.400 331.141,18.400 330.400 C 18.400 329.867,18.667 329.600,19.200 329.600 C 19.916 329.600,20.000 329.333,20.000 327.047 C 20.000 324.830,20.105 324.466,20.800 324.284 C 21.521 324.096,21.600 323.738,21.600 320.665 C 21.600 317.434,21.647 317.249,22.500 317.128 C 23.306 317.013,23.412 316.744,23.518 314.542 C 23.616 312.495,23.767 312.050,24.418 311.879 C 25.113 311.698,25.200 311.314,25.200 308.437 C 25.200 305.467,25.266 305.200,26.000 305.200 C 26.737 305.200,26.800 304.933,26.800 301.828 C 26.800 298.635,26.848 298.449,27.700 298.328 C 28.518 298.212,28.611 297.953,28.718 295.500 C 28.822 293.128,28.932 292.800,29.618 292.800 C 30.333 292.800,30.400 292.507,30.400 289.400 C 30.400 286.267,30.463 286.000,31.200 286.000 C 31.918 286.000,32.000 285.733,32.000 283.400 C 32.000 281.116,32.092 280.800,32.757 280.800 C 33.767 280.800,34.000 280.052,34.000 276.814 C 34.000 274.430,34.099 274.067,34.800 273.884 C 35.522 273.695,35.600 273.338,35.600 270.237 C 35.600 267.067,35.662 266.800,36.400 266.800 C 37.149 266.800,37.200 266.533,37.200 262.600 L 37.200 258.400 34.600 258.400 C 32.320 258.400,32.000 258.307,32.000 257.647 C 32.000 256.712,30.963 256.413,27.700 256.405 C 25.468 256.401,25.200 256.314,25.200 255.600 C 25.200 254.882,24.933 254.800,22.600 254.800 L 20.000 254.800 20.000 257.400 " stroke="none" fill="#047c44" fill-rule="evenodd"></path><path id="path1" d="" stroke="none" fill="#087c44" fill-rule="evenodd"></path><path id="path2" d="" stroke="none" fill="#087c44" fill-rule="evenodd"></path><path id="path3" d="" stroke="none" fill="#087c44" fill-rule="evenodd"></path><path id="path4" d="" stroke="none" fill="#087c44" fill-rule="evenodd"></path></g></svg>
