<svg id="svg" version="1.1" xmlns="http://www.w3.org/2000/svg" xmlns:xlink="http://www.w3.org/1999/xlink" width="400" height="400" viewBox="0, 0, 400,400"><g id="svgg"><path id="path0" d="M21.800 5.200 C 21.660 5.640,21.198 6.000,20.773 6.000 C 20.215 6.000,20.000 6.278,20.000 7.000 C 20.000 7.733,19.787 8.000,19.200 8.000 C 18.667 8.000,18.400 8.267,18.400 8.800 C 18.400 9.387,18.133 9.600,17.400 9.600 C 16.667 9.600,16.400 9.813,16.400 10.400 C 16.400 10.933,16.133 11.200,15.600 11.200 C 15.013 11.200,14.800 11.467,14.800 12.200 C 14.800 12.933,14.587 13.200,14.000 13.200 C 13.467 13.200,13.200 13.467,13.200 14.000 C 13.200 14.587,12.933 14.800,12.200 14.800 C 11.467 14.800,11.200 15.013,11.200 15.600 C 11.200 16.133,10.933 16.400,10.400 16.400 C 9.813 16.400,9.600 16.667,9.600 17.400 C 9.600 18.133,9.387 18.400,8.800 18.400 C 8.267 18.400,8.000 18.667,8.000 19.200 C 8.000 19.787,7.733 20.000,7.000 20.000 C 6.287 20.000,6.000 20.216,6.000 20.753 C 6.000 21.170,5.643 21.600,5.200 21.716 C 4.721 21.841,4.400 22.262,4.400 22.763 C 4.400 23.333,4.145 23.600,3.600 23.600 C 3.067 23.600,2.800 23.867,2.800 24.400 C 2.800 24.987,2.533 25.200,1.800 25.200 C 1.000 25.200,0.800 25.400,0.800 26.200 C 0.800 26.750,0.620 27.200,0.400 27.200 C 0.159 27.200,0.000 28.867,0.000 31.400 C 0.000 33.933,0.159 35.600,0.400 35.600 C 0.620 35.600,0.800 36.194,0.800 36.920 C 0.800 38.589,1.411 39.200,3.080 39.200 C 4.133 39.200,4.400 39.362,4.400 40.000 C 4.400 40.750,4.667 40.800,8.637 40.800 C 12.538 40.800,12.892 40.736,13.084 40.000 C 13.217 39.492,13.630 39.200,14.214 39.200 C 15.660 39.200,16.400 38.779,16.400 37.957 C 16.400 37.476,16.681 37.200,17.172 37.200 C 17.655 37.200,18.009 36.863,18.118 36.300 C 18.213 35.805,18.316 44.805,18.346 56.300 C 18.399 76.915,18.411 77.200,19.200 77.200 C 19.787 77.200,20.000 77.467,20.000 78.200 C 20.000 79.000,20.200 79.200,21.000 79.200 C 21.733 79.200,22.000 79.413,22.000 80.000 C 22.000 80.749,22.267 80.800,26.200 80.800 C 30.092 80.800,30.400 80.743,30.400 80.023 C 30.400 79.395,30.726 79.222,32.100 79.123 C 33.487 79.023,33.823 78.842,33.922 78.141 C 33.990 77.668,34.395 77.190,34.822 77.078 C 36.041 76.759,36.047 8.000,34.828 8.000 C 34.332 8.000,34.010 7.678,33.928 7.100 C 33.848 6.537,33.479 6.154,32.941 6.078 C 32.468 6.010,31.990 5.605,31.878 5.178 C 31.561 3.965,22.185 3.986,21.800 5.200 M74.000 5.200 C 74.000 5.892,73.733 6.000,72.033 6.000 C 69.551 6.000,68.800 6.289,68.800 7.243 C 68.800 7.784,68.514 8.000,67.800 8.000 C 67.067 8.000,66.800 8.213,66.800 8.800 C 66.800 9.333,66.533 9.600,66.000 9.600 C 65.467 9.600,65.200 9.867,65.200 10.400 C 65.200 10.933,64.933 11.200,64.400 11.200 C 63.813 11.200,63.600 11.467,63.600 12.200 C 63.600 13.000,63.400 13.200,62.600 13.200 C 61.867 13.200,61.600 13.413,61.600 14.000 C 61.600 14.533,61.333 14.800,60.800 14.800 C 60.119 14.800,60.000 15.067,60.000 16.600 C 60.000 18.133,59.881 18.400,59.200 18.400 C 58.409 18.400,58.400 18.667,58.400 42.600 C 58.400 66.533,58.409 66.800,59.200 66.800 C 59.870 66.800,60.000 67.067,60.000 68.437 C 60.000 69.738,60.164 70.118,60.800 70.284 C 61.243 70.400,61.600 70.830,61.600 71.247 C 61.600 71.784,61.887 72.000,62.600 72.000 C 63.400 72.000,63.600 72.200,63.600 73.000 C 63.600 73.733,63.813 74.000,64.400 74.000 C 64.933 74.000,65.200 74.267,65.200 74.800 C 65.200 75.317,65.467 75.600,65.953 75.600 C 66.370 75.600,66.800 75.957,66.916 76.400 C 67.082 77.036,67.462 77.200,68.763 77.200 C 70.242 77.200,70.400 77.296,70.400 78.200 C 70.400 79.164,70.493 79.200,73.000 79.200 C 75.333 79.200,75.600 79.282,75.600 80.000 C 75.600 80.764,75.867 80.800,81.600 80.800 C 87.333 80.800,87.600 80.764,87.600 80.000 C 87.600 79.289,87.867 79.200,90.010 79.200 C 92.212 79.200,92.453 79.114,92.800 78.200 C 93.033 77.588,93.494 77.200,93.990 77.200 C 94.533 77.200,94.800 76.937,94.800 76.400 C 94.800 75.867,95.067 75.600,95.600 75.600 C 96.133 75.600,96.400 75.333,96.400 74.800 C 96.400 74.213,96.667 74.000,97.400 74.000 C 98.200 74.000,98.400 73.800,98.400 73.000 C 98.400 72.267,98.613 72.000,99.200 72.000 C 99.733 72.000,100.000 71.733,100.000 71.200 C 100.000 70.667,100.267 70.400,100.800 70.400 C 101.481 70.400,101.600 70.133,101.600 68.600 C 101.600 66.947,101.681 66.800,102.600 66.800 C 103.564 66.800,103.600 66.707,103.600 64.200 C 103.600 61.867,103.682 61.600,104.400 61.600 C 105.189 61.600,105.200 61.333,105.200 42.600 C 105.200 23.867,105.189 23.600,104.400 23.600 C 103.672 23.600,103.600 23.333,103.600 20.629 C 103.600 17.745,103.082 16.400,101.971 16.400 C 101.767 16.400,101.600 16.040,101.600 15.600 C 101.600 15.067,101.333 14.800,100.800 14.800 C 100.151 14.800,100.000 14.533,100.000 13.391 C 100.000 12.277,99.791 11.888,99.000 11.527 C 98.450 11.277,98.000 10.740,98.000 10.336 C 98.000 9.744,97.687 9.600,96.400 9.600 C 95.067 9.600,94.800 9.467,94.800 8.800 C 94.800 8.282,94.533 8.000,94.043 8.000 C 93.570 8.000,93.193 7.626,93.036 7.000 C 92.804 6.076,92.608 6.000,90.439 6.000 C 88.430 6.000,88.063 5.885,87.884 5.200 C 87.558 3.953,74.000 3.953,74.000 5.200 M138.400 5.200 C 138.400 5.817,138.133 6.000,137.233 6.000 C 135.545 6.000,134.800 6.381,134.800 7.243 C 134.800 7.733,134.518 8.000,134.000 8.000 C 133.467 8.000,133.200 8.267,133.200 8.800 C 133.200 9.317,132.933 9.600,132.447 9.600 C 132.021 9.600,131.599 9.961,131.476 10.430 C 131.357 10.886,130.886 11.357,130.430 11.476 C 129.961 11.599,129.600 12.021,129.600 12.447 C 129.600 12.933,129.317 13.200,128.800 13.200 C 128.267 13.200,128.000 13.467,128.000 14.000 C 128.000 14.510,127.733 14.800,127.264 14.800 C 126.860 14.800,126.323 15.250,126.073 15.800 C 125.822 16.350,125.343 16.800,125.009 16.800 C 124.667 16.800,124.400 17.151,124.400 17.600 C 124.400 18.133,124.133 18.400,123.600 18.400 C 123.067 18.400,122.800 18.667,122.800 19.200 C 122.800 19.731,122.533 20.000,122.008 20.000 C 121.496 20.000,121.126 20.354,120.964 21.000 C 120.807 21.626,120.430 22.000,119.957 22.000 C 119.467 22.000,119.200 22.282,119.200 22.800 C 119.200 23.333,118.933 23.600,118.400 23.600 C 117.751 23.600,117.600 23.867,117.600 25.010 C 117.600 26.146,117.406 26.494,116.600 26.800 C 115.607 27.178,115.600 27.214,115.600 32.190 L 115.600 37.200 116.600 37.200 C 117.400 37.200,117.600 37.400,117.600 38.200 C 117.600 38.913,117.816 39.200,118.353 39.200 C 118.770 39.200,119.200 39.557,119.316 40.000 C 119.639 41.234,129.161 41.234,129.484 40.000 C 129.600 39.557,130.030 39.200,130.447 39.200 C 130.984 39.200,131.200 38.913,131.200 38.200 C 131.200 37.400,131.400 37.200,132.200 37.200 L 133.200 37.200 133.200 55.600 C 133.200 73.733,133.212 74.000,134.000 74.000 C 134.667 74.000,134.800 74.267,134.800 75.600 C 134.800 76.914,134.938 77.200,135.572 77.200 C 136.068 77.200,136.390 77.522,136.472 78.100 C 136.554 78.678,136.922 79.046,137.500 79.128 C 138.078 79.210,138.400 79.532,138.400 80.028 C 138.400 80.742,138.717 80.800,142.600 80.800 C 146.533 80.800,146.800 80.749,146.800 80.000 C 146.800 79.383,147.067 79.200,147.967 79.200 C 149.978 79.200,150.400 78.846,150.400 77.157 C 150.400 75.867,150.537 75.600,151.200 75.600 C 151.994 75.600,152.000 75.333,152.000 42.600 C 152.000 9.867,151.994 9.600,151.200 9.600 C 150.537 9.600,150.400 9.333,150.400 8.043 C 150.400 6.354,149.978 6.000,147.967 6.000 C 147.067 6.000,146.800 5.817,146.800 5.200 C 146.800 4.451,146.533 4.400,142.600 4.400 C 138.667 4.400,138.400 4.451,138.400 5.200 M190.400 5.181 C 190.400 5.859,190.072 5.977,187.900 6.081 C 185.655 6.188,185.387 6.292,185.272 7.100 C 185.164 7.859,184.898 8.000,183.572 8.000 C 182.267 8.000,182.000 8.136,182.000 8.800 C 182.000 9.387,181.733 9.600,181.000 9.600 C 180.287 9.600,180.000 9.816,180.000 10.353 C 180.000 10.770,179.643 11.200,179.200 11.316 C 178.721 11.441,178.400 11.862,178.400 12.363 C 178.400 12.932,178.145 13.200,177.605 13.200 C 176.989 13.200,176.753 13.554,176.559 14.765 C 176.389 15.831,176.068 16.393,175.554 16.528 C 174.920 16.694,174.800 17.110,174.800 19.136 C 174.800 21.195,174.683 21.583,174.000 21.800 C 173.214 22.050,173.200 22.405,173.200 42.580 C 173.200 62.770,173.213 63.110,174.000 63.316 C 174.687 63.496,174.800 63.862,174.800 65.916 C 174.800 67.970,174.913 68.336,175.600 68.516 C 176.079 68.641,176.400 69.062,176.400 69.563 C 176.400 70.189,176.652 70.400,177.400 70.400 C 178.297 70.400,178.400 70.562,178.400 71.973 C 178.400 73.165,178.583 73.604,179.157 73.786 C 179.573 73.918,180.006 74.381,180.119 74.813 C 180.429 75.998,186.369 76.006,186.678 74.822 C 186.790 74.395,187.268 73.990,187.741 73.922 C 188.279 73.846,188.648 73.463,188.728 72.900 C 188.836 72.141,189.102 72.000,190.428 72.000 C 191.733 72.000,192.000 71.864,192.000 71.200 C 192.000 70.613,192.267 70.400,193.000 70.400 C 193.733 70.400,194.000 70.187,194.000 69.600 C 194.000 68.933,194.267 68.800,195.600 68.800 C 197.040 68.800,197.200 68.700,197.200 67.800 C 197.200 66.881,197.347 66.800,199.000 66.800 C 200.533 66.800,200.800 66.681,200.800 66.000 C 200.800 65.330,201.067 65.200,202.437 65.200 C 203.723 65.200,204.119 65.033,204.278 64.422 C 204.425 63.863,204.893 63.609,205.941 63.522 C 207.002 63.433,207.508 63.154,207.795 62.500 C 208.104 61.796,208.518 61.600,209.695 61.600 C 210.933 61.600,211.200 61.458,211.200 60.800 C 211.200 60.082,211.467 60.000,213.800 60.000 C 216.108 60.000,216.400 59.913,216.400 59.223 C 216.400 58.595,216.726 58.422,218.100 58.323 L 219.800 58.200 219.904 38.464 C 220.006 18.989,219.997 18.724,219.204 18.517 C 218.640 18.369,218.400 17.972,218.400 17.186 C 218.400 15.544,218.012 14.800,217.157 14.800 C 216.667 14.800,216.400 14.518,216.400 14.000 C 216.400 13.467,216.133 13.200,215.600 13.200 C 215.013 13.200,214.800 12.933,214.800 12.200 C 214.800 11.467,214.587 11.200,214.000 11.200 C 213.467 11.200,213.200 10.933,213.200 10.400 C 213.200 9.813,212.933 9.600,212.200 9.600 C 211.467 9.600,211.200 9.387,211.200 8.800 C 211.200 8.303,210.933 8.000,210.495 8.000 C 210.107 8.000,209.612 7.595,209.395 7.100 C 209.063 6.344,208.639 6.181,206.742 6.081 C 204.894 5.984,204.446 5.820,204.279 5.181 C 203.962 3.967,190.400 3.966,190.400 5.181 M254.800 5.177 C 254.800 5.805,254.474 5.978,253.100 6.077 C 251.687 6.179,251.378 6.352,251.272 7.100 C 251.190 7.678,250.868 8.000,250.372 8.000 C 249.867 8.000,249.600 8.276,249.600 8.800 C 249.600 9.333,249.333 9.600,248.800 9.600 C 248.276 9.600,248.000 9.867,248.000 10.372 C 248.000 10.868,247.678 11.190,247.100 11.272 C 246.522 11.354,246.154 11.722,246.072 12.300 C 245.990 12.878,245.668 13.200,245.172 13.200 C 244.667 13.200,244.400 13.476,244.400 14.000 C 244.400 14.533,244.133 14.800,243.600 14.800 C 243.076 14.800,242.800 15.067,242.800 15.572 C 242.800 16.068,242.478 16.390,241.900 16.472 C 241.322 16.554,240.954 16.922,240.872 17.500 C 240.790 18.078,240.468 18.400,239.972 18.400 C 239.467 18.400,239.200 18.676,239.200 19.200 C 239.200 19.733,238.933 20.000,238.400 20.000 C 237.876 20.000,237.600 20.267,237.600 20.772 C 237.600 21.268,237.278 21.590,236.700 21.672 C 236.122 21.754,235.754 22.122,235.672 22.700 C 235.590 23.278,235.268 23.600,234.772 23.600 C 234.267 23.600,234.000 23.876,234.000 24.400 C 234.000 24.927,233.733 25.200,233.218 25.200 C 231.559 25.200,231.443 36.892,233.100 37.128 C 233.751 37.220,234.000 37.524,234.000 38.228 C 234.000 38.933,234.219 39.200,234.800 39.200 C 235.333 39.200,235.600 39.467,235.600 40.000 C 235.600 40.758,235.867 40.800,240.637 40.800 C 245.338 40.800,245.689 40.747,245.884 40.000 C 245.999 39.560,246.429 39.200,246.839 39.200 C 247.301 39.200,247.680 38.819,247.836 38.200 C 247.993 37.574,248.370 37.200,248.843 37.200 C 249.557 37.200,249.600 37.600,249.600 44.200 L 249.600 51.200 258.200 51.200 L 266.800 51.200 266.800 29.600 C 266.800 8.267,266.790 8.000,266.000 8.000 C 265.413 8.000,265.200 7.733,265.200 7.000 C 265.200 6.287,264.984 6.000,264.447 6.000 C 264.030 6.000,263.600 5.643,263.484 5.200 C 263.166 3.984,254.800 3.962,254.800 5.177 M312.200 5.200 C 312.041 5.701,311.595 6.000,311.006 6.000 C 309.541 6.000,308.800 6.417,308.800 7.243 C 308.800 7.733,308.518 8.000,308.000 8.000 C 307.467 8.000,307.200 8.267,307.200 8.800 C 307.200 9.345,306.933 9.600,306.363 9.600 C 305.866 9.600,305.441 9.920,305.319 10.387 C 305.206 10.819,304.773 11.282,304.357 11.414 C 303.941 11.546,303.600 12.002,303.600 12.427 C 303.600 12.933,303.324 13.200,302.800 13.200 C 302.267 13.200,302.000 13.467,302.000 14.000 C 302.000 14.537,301.733 14.800,301.190 14.800 C 300.694 14.800,300.233 15.188,300.000 15.800 C 299.791 16.350,299.345 16.800,299.010 16.800 C 298.667 16.800,298.400 17.150,298.400 17.600 C 298.400 18.133,298.133 18.400,297.600 18.400 C 297.150 18.400,296.800 18.667,296.800 19.010 C 296.800 19.345,296.350 19.791,295.800 20.000 C 295.188 20.233,294.800 20.694,294.800 21.190 C 294.800 21.733,294.537 22.000,294.000 22.000 C 293.467 22.000,293.200 22.267,293.200 22.800 C 293.200 23.318,292.933 23.600,292.443 23.600 C 291.621 23.600,291.200 24.340,291.200 25.786 C 291.200 26.370,290.908 26.783,290.400 26.916 C 289.184 27.234,289.157 37.200,290.372 37.200 C 290.868 37.200,291.190 37.522,291.272 38.100 C 291.352 38.663,291.721 39.046,292.259 39.122 C 292.732 39.190,293.210 39.595,293.322 40.022 C 293.639 41.237,303.166 41.216,303.484 40.000 C 303.600 39.557,304.030 39.200,304.447 39.200 C 304.984 39.200,305.200 38.913,305.200 38.200 C 305.200 37.476,305.415 37.200,305.979 37.200 C 306.733 37.200,306.762 37.622,306.879 50.015 C 307.010 63.931,306.949 63.580,309.253 63.594 C 309.967 63.598,310.374 63.858,310.516 64.400 C 310.696 65.090,311.062 65.200,313.163 65.200 C 315.333 65.200,315.600 65.288,315.600 66.000 C 315.600 66.587,315.867 66.800,316.600 66.800 C 317.314 66.800,317.600 67.016,317.600 67.557 C 317.600 68.379,318.340 68.800,319.786 68.800 C 320.370 68.800,320.783 69.092,320.916 69.600 C 321.096 70.290,321.462 70.400,323.563 70.400 L 326.000 70.400 326.000 40.000 C 326.000 9.867,325.993 9.600,325.200 9.600 C 324.562 9.600,324.400 9.333,324.400 8.280 C 324.400 6.611,323.789 6.000,322.120 6.000 C 321.067 6.000,320.800 5.838,320.800 5.200 C 320.800 4.451,320.533 4.400,316.627 4.400 C 312.805 4.400,312.433 4.467,312.200 5.200 M199.202 23.600 C 200.704 23.600,200.756 23.646,200.876 25.100 C 200.976 26.305,201.177 26.625,201.900 26.728 L 202.800 26.856 202.800 42.628 C 202.800 58.368,202.798 58.400,201.963 58.400 C 201.475 58.400,201.042 58.719,200.926 59.163 C 200.816 59.583,200.383 60.016,199.963 60.126 C 199.543 60.235,199.200 60.612,199.200 60.963 C 199.200 61.480,198.712 61.600,196.600 61.600 C 194.267 61.600,194.000 61.518,194.000 60.800 C 194.000 60.213,193.733 60.000,193.000 60.000 L 192.000 60.000 192.000 42.600 C 192.000 25.207,192.000 25.200,192.837 25.200 C 193.331 25.200,193.759 24.880,193.878 24.422 C 194.025 23.863,194.493 23.609,195.541 23.522 C 196.739 23.422,197.032 23.221,197.181 22.400 L 197.362 21.400 197.507 22.500 C 197.638 23.486,197.814 23.600,199.202 23.600 M83.033 23.600 C 84.133 23.600,84.400 23.756,84.400 24.400 C 84.400 24.933,84.667 25.200,85.200 25.200 C 85.988 25.200,86.000 25.467,86.000 42.600 C 86.000 59.733,85.988 60.000,85.200 60.000 C 84.667 60.000,84.400 60.267,84.400 60.800 C 84.400 61.541,84.133 61.600,80.800 61.600 L 77.200 61.600 77.200 60.000 C 77.200 58.667,77.067 58.400,76.400 58.400 C 75.613 58.400,75.600 58.133,75.600 41.800 C 75.600 25.467,75.613 25.200,76.400 25.200 C 76.925 25.200,77.200 24.933,77.200 24.423 C 77.200 23.665,79.557 23.096,81.133 23.473 C 81.426 23.543,82.281 23.600,83.033 23.600 M237.600 64.400 C 237.600 65.152,237.333 65.200,233.200 65.200 C 229.103 65.200,228.800 65.254,228.800 65.981 C 228.800 66.659,228.472 66.777,226.300 66.881 C 224.055 66.988,223.787 67.092,223.672 67.900 C 223.555 68.727,223.335 68.800,220.972 68.800 C 218.667 68.800,218.400 68.883,218.400 69.600 C 218.400 70.318,218.133 70.400,215.800 70.400 C 213.467 70.400,213.200 70.482,213.200 71.200 C 213.200 71.817,212.933 72.000,212.033 72.000 C 210.345 72.000,209.600 72.381,209.600 73.243 C 209.600 73.874,209.299 74.000,207.800 74.000 C 206.267 74.000,206.000 74.119,206.000 74.800 C 206.000 75.467,205.733 75.600,204.400 75.600 C 203.097 75.600,202.800 75.740,202.800 76.357 C 202.800 77.219,202.055 77.600,200.367 77.600 C 199.467 77.600,199.200 77.783,199.200 78.400 C 199.200 79.070,198.933 79.200,197.563 79.200 C 196.262 79.200,195.882 79.364,195.716 80.000 C 195.600 80.443,195.170 80.800,194.753 80.800 C 194.216 80.800,194.000 81.087,194.000 81.800 C 194.000 82.548,193.789 82.800,193.163 82.800 C 192.662 82.800,192.241 83.121,192.116 83.600 C 191.952 84.227,191.570 84.400,190.353 84.400 C 189.085 84.400,188.800 84.542,188.800 85.172 C 188.800 85.668,188.478 85.990,187.900 86.072 C 187.322 86.154,186.954 86.522,186.872 87.100 C 186.790 87.678,186.468 88.000,185.972 88.000 C 185.467 88.000,185.200 88.276,185.200 88.800 C 185.200 89.467,184.933 89.600,183.600 89.600 C 182.313 89.600,182.000 89.744,182.000 90.336 C 182.000 90.740,181.550 91.277,181.000 91.527 C 180.450 91.778,180.000 92.257,180.000 92.591 C 180.000 92.933,179.649 93.200,179.200 93.200 C 178.667 93.200,178.400 93.467,178.400 94.000 C 178.400 94.517,178.133 94.800,177.647 94.800 C 177.221 94.800,176.799 95.161,176.676 95.630 C 176.557 96.086,176.086 96.557,175.630 96.676 C 175.161 96.799,174.800 97.221,174.800 97.647 C 174.800 98.133,174.517 98.400,174.000 98.400 C 173.467 98.400,173.200 98.667,173.200 99.200 C 173.200 99.640,172.936 100.000,172.614 100.000 C 171.877 100.000,171.200 101.232,171.200 102.574 C 171.200 103.333,170.992 103.600,170.400 103.600 C 169.867 103.600,169.600 103.867,169.600 104.400 C 169.600 104.933,169.333 105.200,168.800 105.200 C 168.269 105.200,168.000 105.467,168.000 105.992 C 168.000 106.504,167.646 106.874,167.000 107.036 C 166.148 107.250,166.000 107.517,166.000 108.843 C 166.000 110.133,165.863 110.400,165.200 110.400 C 164.676 110.400,164.400 110.667,164.400 111.173 C 164.400 111.598,164.040 112.060,163.600 112.200 C 162.979 112.397,162.800 112.805,162.800 114.027 C 162.800 115.438,162.697 115.600,161.800 115.600 C 161.000 115.600,160.800 115.800,160.800 116.600 C 160.800 117.333,160.587 117.600,160.000 117.600 C 159.333 117.600,159.200 117.867,159.200 119.200 C 159.200 120.533,159.067 120.800,158.400 120.800 C 157.783 120.800,157.600 121.067,157.600 121.967 C 157.600 123.655,157.219 124.400,156.357 124.400 C 155.726 124.400,155.600 124.701,155.600 126.200 C 155.600 127.733,155.481 128.000,154.800 128.000 C 154.137 128.000,154.000 128.267,154.000 129.553 C 154.000 130.728,153.820 131.154,153.261 131.300 C 152.509 131.497,152.000 133.073,152.000 135.203 C 152.000 135.970,151.756 136.370,151.200 136.516 C 150.513 136.696,150.400 137.062,150.400 139.116 C 150.400 141.170,150.287 141.536,149.600 141.716 C 148.902 141.898,148.800 142.262,148.800 144.563 C 148.800 146.875,148.708 147.200,148.050 147.200 C 147.122 147.200,146.800 148.594,146.800 152.603 C 146.800 155.170,146.707 155.531,146.000 155.716 C 145.214 155.922,145.200 156.262,145.200 175.763 C 145.200 195.333,145.211 195.600,146.000 195.600 C 146.739 195.600,146.800 195.868,146.805 199.100 C 146.812 203.364,147.055 204.400,148.047 204.400 C 148.722 204.400,148.800 204.733,148.800 207.637 C 148.800 210.538,148.883 210.897,149.600 211.084 C 150.287 211.264,150.400 211.630,150.400 213.684 C 150.400 215.738,150.513 216.104,151.200 216.284 C 151.682 216.410,152.002 216.833,152.005 217.347 C 152.016 218.994,152.487 220.000,153.247 220.000 C 153.873 220.000,154.000 220.304,154.000 221.800 C 154.000 223.333,154.119 223.600,154.800 223.600 C 155.467 223.600,155.600 223.867,155.600 225.200 C 155.600 226.500,155.741 226.800,156.353 226.800 C 157.121 226.800,157.584 227.808,157.595 229.500 C 157.598 230.132,157.839 230.400,158.400 230.400 C 159.081 230.400,159.200 230.667,159.200 232.200 C 159.200 233.715,159.323 234.000,159.976 234.000 C 160.584 234.000,160.779 234.325,160.876 235.500 C 160.976 236.705,161.177 237.025,161.900 237.128 C 162.551 237.220,162.800 237.524,162.800 238.228 C 162.800 238.933,163.019 239.200,163.600 239.200 C 164.267 239.200,164.400 239.467,164.400 240.800 C 164.400 242.114,164.538 242.400,165.172 242.400 C 165.668 242.400,165.990 242.722,166.072 243.300 C 166.154 243.878,166.522 244.246,167.100 244.328 C 167.678 244.410,168.000 244.732,168.000 245.228 C 168.000 245.733,168.276 246.000,168.800 246.000 C 169.470 246.000,169.600 246.267,169.600 247.637 C 169.600 248.912,169.769 249.319,170.363 249.474 C 170.783 249.584,171.216 250.017,171.326 250.437 C 171.442 250.881,171.875 251.200,172.363 251.200 C 172.946 251.200,173.200 251.454,173.200 252.037 C 173.200 252.538,173.521 252.959,174.000 253.084 C 174.443 253.200,174.800 253.630,174.800 254.047 C 174.800 254.518,175.082 254.800,175.553 254.800 C 175.970 254.800,176.400 255.157,176.516 255.600 C 176.641 256.079,177.062 256.400,177.563 256.400 C 178.146 256.400,178.400 256.654,178.400 257.237 C 178.400 257.738,178.721 258.159,179.200 258.284 C 179.643 258.400,180.000 258.830,180.000 259.247 C 180.000 259.718,180.282 260.000,180.753 260.000 C 181.170 260.000,181.600 260.357,181.716 260.800 C 181.841 261.279,182.262 261.600,182.763 261.600 C 183.332 261.600,183.600 261.855,183.600 262.395 C 183.600 263.011,183.954 263.247,185.165 263.441 C 186.231 263.611,186.793 263.932,186.928 264.446 C 187.042 264.882,187.478 265.200,187.963 265.200 C 188.533 265.200,188.800 265.455,188.800 266.000 C 188.800 266.524,189.067 266.800,189.572 266.800 C 190.068 266.800,190.390 267.122,190.472 267.700 C 190.578 268.448,190.887 268.621,192.300 268.723 C 193.674 268.822,194.000 268.995,194.000 269.623 C 194.000 270.133,194.275 270.400,194.800 270.400 C 195.333 270.400,195.600 270.667,195.600 271.200 C 195.600 271.881,195.867 272.000,197.400 272.000 C 199.053 272.000,199.200 272.081,199.200 273.000 C 199.200 273.722,199.415 274.000,199.973 274.000 C 200.398 274.000,200.860 274.360,201.000 274.800 C 201.197 275.421,201.605 275.600,202.827 275.600 C 204.133 275.600,204.400 275.736,204.400 276.400 C 204.400 277.080,204.667 277.200,206.172 277.200 C 207.705 277.200,207.962 277.321,208.072 278.100 C 208.174 278.820,208.495 279.025,209.680 279.123 C 210.728 279.210,211.233 279.473,211.407 280.023 C 211.613 280.673,212.028 280.800,213.932 280.800 C 215.911 280.800,216.262 280.918,216.605 281.700 C 216.937 282.456,217.361 282.619,219.258 282.719 C 221.106 282.816,221.554 282.980,221.721 283.619 C 221.896 284.288,222.281 284.400,224.400 284.400 C 226.538 284.400,226.903 284.509,227.084 285.200 C 227.272 285.920,227.630 286.000,230.647 286.000 C 233.659 286.000,234.000 286.076,234.000 286.750 C 234.000 287.789,235.390 288.000,242.250 288.000 C 247.733 288.000,248.000 288.037,248.000 288.800 C 248.000 290.042,267.730 290.052,268.394 288.811 C 268.781 288.088,269.315 288.012,274.708 287.911 C 280.475 287.802,280.603 287.781,280.728 286.900 C 280.849 286.047,281.034 286.000,284.265 286.000 C 287.338 286.000,287.696 285.921,287.884 285.200 C 288.067 284.499,288.430 284.400,290.814 284.400 C 293.866 284.400,294.800 284.161,294.800 283.380 C 294.800 283.038,295.410 282.802,296.500 282.723 C 297.913 282.621,298.222 282.448,298.328 281.700 C 298.444 280.880,298.671 280.800,300.865 280.800 C 302.938 280.800,303.304 280.688,303.484 280.000 C 303.648 279.373,304.030 279.200,305.247 279.200 C 306.637 279.200,306.800 279.095,306.800 278.200 C 306.800 277.281,306.947 277.200,308.600 277.200 C 310.133 277.200,310.400 277.081,310.400 276.400 C 310.400 275.719,310.667 275.600,312.200 275.600 C 313.715 275.600,314.000 275.477,314.000 274.824 C 314.000 274.216,314.325 274.021,315.500 273.924 C 316.705 273.824,317.025 273.623,317.128 272.900 C 317.220 272.249,317.524 272.000,318.228 272.000 C 318.933 272.000,319.200 271.781,319.200 271.200 C 319.200 270.536,319.467 270.400,320.773 270.400 C 321.965 270.400,322.404 270.217,322.586 269.643 C 322.718 269.227,323.181 268.794,323.613 268.681 C 324.080 268.559,324.400 268.134,324.400 267.637 C 324.400 266.927,324.643 266.800,326.000 266.800 C 327.333 266.800,327.600 266.667,327.600 266.000 C 327.600 265.413,327.867 265.200,328.600 265.200 C 329.333 265.200,329.600 264.987,329.600 264.400 C 329.600 263.867,329.867 263.600,330.400 263.600 C 330.987 263.600,331.200 263.333,331.200 262.600 C 331.200 261.800,331.400 261.600,332.200 261.600 C 332.933 261.600,333.200 261.387,333.200 260.800 C 333.200 260.267,333.467 260.000,334.000 260.000 C 334.533 260.000,334.800 259.733,334.800 259.200 C 334.800 258.667,335.067 258.400,335.600 258.400 C 336.187 258.400,336.400 258.133,336.400 257.400 C 336.400 256.600,336.600 256.400,337.400 256.400 C 338.133 256.400,338.400 256.187,338.400 255.600 C 338.400 255.067,338.667 254.800,339.200 254.800 C 339.733 254.800,340.000 254.533,340.000 254.000 C 340.000 253.467,340.267 253.200,340.800 253.200 C 341.387 253.200,341.600 252.933,341.600 252.200 C 341.600 251.400,341.800 251.200,342.600 251.200 C 343.333 251.200,343.600 250.987,343.600 250.400 C 343.600 249.867,343.867 249.600,344.400 249.600 C 344.917 249.600,345.200 249.333,345.200 248.847 C 345.200 248.430,345.557 248.000,346.000 247.884 C 346.479 247.759,346.800 247.338,346.800 246.837 C 346.800 246.282,347.055 246.000,347.557 246.000 C 348.387 246.000,348.800 245.259,348.800 243.767 C 348.800 243.067,349.021 242.800,349.600 242.800 C 350.187 242.800,350.400 242.533,350.400 241.800 C 350.400 241.067,350.613 240.800,351.200 240.800 C 351.881 240.800,352.000 240.533,352.000 239.000 C 352.000 237.347,352.081 237.200,353.000 237.200 C 353.733 237.200,354.000 236.987,354.000 236.400 C 354.000 235.867,354.267 235.600,354.800 235.600 C 355.481 235.600,355.600 235.333,355.600 233.800 C 355.600 232.267,355.719 232.000,356.400 232.000 C 357.064 232.000,357.200 231.733,357.200 230.428 C 357.200 229.102,357.341 228.836,358.100 228.728 C 358.848 228.622,359.021 228.313,359.123 226.900 C 359.222 225.526,359.395 225.200,360.023 225.200 C 360.675 225.200,360.800 224.916,360.800 223.428 C 360.800 221.895,360.921 221.638,361.700 221.528 C 362.444 221.422,362.621 221.112,362.721 219.741 C 362.812 218.493,363.035 218.032,363.621 217.879 C 364.274 217.708,364.400 217.319,364.400 215.464 C 364.400 213.605,364.527 213.214,365.200 213.000 C 365.891 212.781,366.000 212.395,366.000 210.173 C 366.000 207.924,366.094 207.600,366.750 207.600 C 367.680 207.600,368.000 206.206,368.000 202.150 C 368.000 199.467,368.072 199.200,368.800 199.200 C 369.559 199.200,369.600 198.933,369.600 194.027 C 369.600 189.205,369.654 188.837,370.400 188.600 C 371.177 188.354,371.200 187.995,371.200 176.373 C 371.200 164.667,371.182 164.400,370.400 164.400 C 369.636 164.400,369.600 164.133,369.600 158.447 C 369.600 152.872,369.550 152.480,368.817 152.289 C 368.131 152.109,368.019 151.670,367.917 148.742 C 367.808 145.622,367.740 145.392,366.900 145.272 C 366.052 145.152,366.000 144.959,366.000 141.935 C 366.000 139.062,365.916 138.703,365.200 138.516 C 364.553 138.347,364.400 137.970,364.400 136.553 C 364.400 135.067,364.278 134.800,363.600 134.800 C 362.908 134.800,362.800 134.533,362.800 132.833 C 362.800 130.351,362.511 129.600,361.557 129.600 C 360.938 129.600,360.800 129.302,360.800 127.963 C 360.800 126.662,360.636 126.282,360.000 126.116 C 359.373 125.952,359.200 125.570,359.200 124.353 C 359.200 122.963,359.095 122.800,358.200 122.800 C 357.281 122.800,357.200 122.653,357.200 121.000 C 357.200 119.467,357.081 119.200,356.400 119.200 C 355.736 119.200,355.600 118.933,355.600 117.627 C 355.600 116.405,355.421 115.997,354.800 115.800 C 354.360 115.660,354.000 115.198,354.000 114.773 C 354.000 114.215,353.722 114.000,353.000 114.000 C 352.096 114.000,352.000 113.842,352.000 112.363 C 352.000 111.062,351.836 110.682,351.200 110.516 C 350.757 110.400,350.400 109.970,350.400 109.553 C 350.400 109.076,350.117 108.800,349.628 108.800 C 349.132 108.800,348.810 108.478,348.728 107.900 C 348.646 107.322,348.278 106.954,347.700 106.872 C 346.941 106.764,346.800 106.498,346.800 105.172 C 346.800 103.867,346.664 103.600,346.000 103.600 C 345.455 103.600,345.200 103.333,345.200 102.763 C 345.200 102.275,344.881 101.842,344.437 101.726 C 344.017 101.616,343.584 101.183,343.474 100.763 C 343.358 100.319,342.925 100.000,342.437 100.000 C 341.867 100.000,341.600 99.745,341.600 99.200 C 341.600 98.667,341.333 98.400,340.800 98.400 C 340.255 98.400,340.000 98.133,340.000 97.563 C 340.000 97.075,339.681 96.642,339.237 96.526 C 338.817 96.416,338.384 95.983,338.274 95.563 C 338.158 95.119,337.725 94.800,337.237 94.800 C 336.667 94.800,336.400 94.545,336.400 94.000 C 336.400 93.467,336.133 93.200,335.600 93.200 C 335.013 93.200,334.800 92.933,334.800 92.200 C 334.800 91.478,334.585 91.200,334.027 91.200 C 333.602 91.200,333.140 90.840,333.000 90.400 C 332.860 89.960,332.398 89.600,331.973 89.600 C 331.467 89.600,331.200 89.324,331.200 88.800 C 331.200 88.303,330.933 88.000,330.495 88.000 C 330.107 88.000,329.612 87.595,329.395 87.100 C 329.105 86.438,328.603 86.167,327.500 86.076 C 326.325 85.979,326.000 85.784,326.000 85.176 C 326.000 84.667,325.725 84.400,325.200 84.400 C 324.667 84.400,324.400 84.133,324.400 83.600 C 324.400 82.919,324.133 82.800,322.600 82.800 C 320.947 82.800,320.800 82.719,320.800 81.800 C 320.800 81.067,320.587 80.800,320.000 80.800 C 319.467 80.800,319.200 80.533,319.200 80.000 C 319.200 79.319,318.933 79.200,317.400 79.200 C 315.867 79.200,315.600 79.081,315.600 78.400 C 315.600 77.903,315.333 77.600,314.895 77.600 C 314.507 77.600,314.012 77.195,313.795 76.700 C 313.508 76.046,313.002 75.767,311.941 75.678 C 310.893 75.591,310.425 75.337,310.278 74.778 C 310.119 74.167,309.723 74.000,308.437 74.000 C 307.105 74.000,306.800 73.861,306.800 73.252 C 306.800 72.489,305.241 72.015,302.700 72.004 C 301.868 72.001,301.600 71.805,301.600 71.200 C 301.600 70.536,301.333 70.400,300.027 70.400 C 298.805 70.400,298.397 70.221,298.200 69.600 C 297.984 68.918,297.595 68.800,295.573 68.800 C 294.268 68.800,293.200 68.633,293.200 68.429 C 293.200 67.318,291.855 66.800,288.971 66.800 C 286.267 66.800,286.000 66.728,286.000 66.000 C 286.000 65.263,285.733 65.200,282.627 65.200 C 279.605 65.200,279.227 65.117,279.000 64.400 C 278.750 63.614,278.395 63.600,258.173 63.600 C 237.867 63.600,237.600 63.610,237.600 64.400 M323.654 69.519 C 323.133 69.601,322.543 69.503,322.341 69.301 C 322.119 69.079,322.493 69.021,323.287 69.152 C 324.398 69.337,324.455 69.393,323.654 69.519 M270.400 81.557 C 270.400 82.618,271.137 82.800,275.433 82.800 C 278.933 82.800,279.200 82.857,279.200 83.600 C 279.200 84.316,279.467 84.400,281.753 84.400 C 283.970 84.400,284.334 84.505,284.516 85.200 C 284.696 85.890,285.062 86.000,287.163 86.000 C 289.279 86.000,289.600 86.099,289.600 86.750 C 289.600 87.556,290.967 88.000,293.450 88.000 C 294.533 88.000,294.800 88.158,294.800 88.800 C 294.800 89.481,295.067 89.600,296.600 89.600 C 298.133 89.600,298.400 89.719,298.400 90.400 C 298.400 91.063,298.667 91.200,299.953 91.200 C 301.309 91.200,301.532 91.333,301.706 92.240 C 302.077 94.183,301.655 94.800,299.953 94.800 C 298.685 94.800,298.400 94.942,298.400 95.572 C 298.400 96.068,298.078 96.390,297.500 96.472 C 296.922 96.554,296.554 96.922,296.472 97.500 C 296.390 98.078,296.068 98.400,295.572 98.400 C 295.067 98.400,294.800 98.676,294.800 99.200 C 294.800 99.733,294.533 100.000,294.000 100.000 C 293.319 100.000,293.200 100.267,293.200 101.800 C 293.200 103.453,293.119 103.600,292.200 103.600 C 291.303 103.600,291.200 103.762,291.200 105.173 C 291.200 106.395,291.021 106.803,290.400 107.000 C 289.613 107.250,289.600 107.605,289.600 129.627 C 289.600 151.733,289.610 152.000,290.400 152.000 C 291.081 152.000,291.200 152.267,291.200 153.800 C 291.200 155.453,291.281 155.600,292.200 155.600 C 293.104 155.600,293.200 155.758,293.200 157.237 C 293.200 158.538,293.364 158.918,294.000 159.084 C 294.443 159.200,294.800 159.630,294.800 160.047 C 294.800 160.518,295.082 160.800,295.553 160.800 C 295.979 160.800,296.401 161.161,296.524 161.630 C 296.643 162.086,297.097 162.553,297.533 162.667 C 297.969 162.781,298.416 163.217,298.526 163.637 C 298.674 164.203,299.084 164.400,300.116 164.400 C 301.170 164.400,301.557 164.594,301.716 165.200 C 301.895 165.885,302.262 166.000,304.268 166.000 C 306.313 166.000,306.660 166.114,307.005 166.900 C 307.729 168.550,319.200 168.448,319.200 166.792 C 319.200 166.089,319.474 166.000,321.637 166.000 C 323.738 166.000,324.104 165.890,324.284 165.200 C 324.443 164.594,324.830 164.400,325.884 164.400 C 326.925 164.400,327.326 164.204,327.478 163.622 C 327.590 163.195,328.068 162.790,328.541 162.722 C 329.079 162.646,329.448 162.263,329.528 161.700 C 329.610 161.122,329.932 160.800,330.428 160.800 C 330.917 160.800,331.200 160.524,331.200 160.047 C 331.200 159.632,331.555 159.200,331.989 159.087 C 332.549 158.941,332.854 158.405,333.040 157.240 C 333.239 155.997,333.484 155.600,334.051 155.600 C 334.672 155.600,334.800 155.292,334.800 153.800 C 334.800 152.267,334.919 152.000,335.600 152.000 C 336.385 152.000,336.400 151.733,336.400 138.055 L 336.400 124.111 337.400 124.302 C 338.267 124.468,338.400 124.705,338.400 126.084 C 338.400 127.338,338.569 127.719,339.200 127.884 C 339.827 128.048,340.000 128.430,340.000 129.647 C 340.000 130.898,340.146 131.200,340.749 131.200 C 341.316 131.200,341.561 131.597,341.760 132.840 C 341.946 134.005,342.251 134.541,342.811 134.687 C 343.422 134.847,343.600 135.237,343.600 136.420 C 343.600 137.595,343.784 138.005,344.400 138.200 C 345.021 138.397,345.200 138.805,345.200 140.027 C 345.200 141.333,345.336 141.600,346.000 141.600 C 346.674 141.600,346.801 141.868,346.805 143.300 C 346.813 145.770,347.179 146.800,348.047 146.800 C 348.707 146.800,348.800 147.120,348.800 149.400 C 348.800 151.733,348.882 152.000,349.600 152.000 C 350.338 152.000,350.400 152.267,350.400 155.437 C 350.400 158.538,350.478 158.895,351.200 159.084 C 351.984 159.289,352.000 159.630,352.000 175.684 C 352.000 191.738,351.984 192.079,351.200 192.284 C 350.480 192.472,350.400 192.830,350.400 195.847 C 350.400 198.933,350.336 199.200,349.600 199.200 C 348.882 199.200,348.800 199.467,348.800 201.800 C 348.800 204.073,348.706 204.400,348.052 204.400 C 347.294 204.400,346.815 205.957,346.804 208.453 C 346.801 209.168,346.543 209.574,346.000 209.716 C 345.310 209.896,345.200 210.262,345.200 212.363 C 345.200 214.533,345.112 214.800,344.400 214.800 C 343.719 214.800,343.600 215.067,343.600 216.600 C 343.600 218.253,343.519 218.400,342.600 218.400 C 341.887 218.400,341.600 218.616,341.600 219.153 C 341.600 219.570,341.243 220.000,340.800 220.116 C 340.164 220.282,340.000 220.662,340.000 221.963 C 340.000 223.333,339.870 223.600,339.200 223.600 C 338.537 223.600,338.400 223.867,338.400 225.157 C 338.400 226.483,338.252 226.750,337.400 226.964 C 336.781 227.120,336.400 227.499,336.400 227.961 C 336.400 228.371,336.040 228.801,335.600 228.916 C 334.994 229.075,334.800 229.462,334.800 230.516 C 334.800 231.570,334.606 231.957,334.000 232.116 C 333.521 232.241,333.200 232.662,333.200 233.163 C 333.200 233.789,332.948 234.000,332.200 234.000 C 331.487 234.000,331.200 234.216,331.200 234.753 C 331.200 235.170,330.843 235.600,330.400 235.716 C 329.921 235.841,329.600 236.262,329.600 236.763 C 329.600 237.333,329.345 237.600,328.800 237.600 C 328.267 237.600,328.000 237.867,328.000 238.400 C 328.000 238.922,327.733 239.200,327.233 239.200 C 326.812 239.200,326.376 239.425,326.265 239.700 C 326.154 239.975,326.049 227.465,326.032 211.900 C 326.000 183.877,325.992 183.600,325.200 183.600 C 324.583 183.600,324.400 183.333,324.400 182.433 C 324.400 180.422,324.046 180.000,322.357 180.000 C 321.067 180.000,320.800 179.863,320.800 179.200 C 320.800 178.451,320.533 178.400,316.627 178.400 C 312.805 178.400,312.433 178.467,312.200 179.200 C 312.011 179.797,311.595 180.000,310.563 180.000 C 309.456 180.000,309.104 180.199,308.800 181.000 C 308.591 181.550,308.145 182.000,307.810 182.000 C 307.467 182.000,307.200 182.350,307.200 182.800 C 307.200 183.345,306.933 183.600,306.363 183.600 C 305.875 183.600,305.442 183.919,305.326 184.363 C 305.216 184.783,304.783 185.216,304.363 185.326 C 303.919 185.442,303.600 185.875,303.600 186.363 C 303.600 186.933,303.345 187.200,302.800 187.200 C 302.350 187.200,302.000 187.467,302.000 187.810 C 302.000 188.145,301.550 188.591,301.000 188.800 C 300.450 189.009,300.000 189.434,300.000 189.743 C 300.000 190.053,299.640 190.401,299.200 190.516 C 298.721 190.641,298.400 191.062,298.400 191.563 C 298.400 192.133,298.145 192.400,297.600 192.400 C 297.150 192.400,296.800 192.667,296.800 193.010 C 296.800 193.345,296.350 193.791,295.800 194.000 C 295.250 194.209,294.800 194.634,294.800 194.943 C 294.800 195.253,294.440 195.601,294.000 195.716 C 293.521 195.841,293.200 196.262,293.200 196.763 C 293.200 197.318,292.945 197.600,292.443 197.600 C 291.613 197.600,291.200 198.341,291.200 199.833 C 291.200 200.533,290.979 200.800,290.400 200.800 C 289.641 200.800,289.600 201.067,289.600 206.000 C 289.600 210.871,289.649 211.200,290.372 211.200 C 290.868 211.200,291.190 211.522,291.272 212.100 C 291.352 212.663,291.721 213.046,292.259 213.122 C 292.732 213.190,293.210 213.595,293.322 214.022 C 293.630 215.200,303.013 215.219,303.386 214.043 C 303.518 213.627,303.981 213.194,304.413 213.081 C 304.880 212.959,305.200 212.534,305.200 212.037 C 305.200 211.467,305.455 211.200,306.000 211.200 C 306.788 211.200,306.800 211.467,306.800 228.967 C 306.800 247.584,306.827 248.000,308.043 248.000 C 308.660 248.000,308.800 248.297,308.800 249.600 C 308.800 250.914,308.938 251.200,309.572 251.200 C 310.066 251.200,310.393 251.524,310.480 252.100 C 310.722 253.712,310.349 254.800,309.553 254.800 C 309.067 254.800,308.800 255.083,308.800 255.600 C 308.800 256.217,308.533 256.400,307.633 256.400 C 305.945 256.400,305.200 256.781,305.200 257.643 C 305.200 258.260,304.903 258.400,303.600 258.400 C 302.267 258.400,302.000 258.533,302.000 259.200 C 302.000 259.870,301.733 260.000,300.363 260.000 C 299.090 260.000,298.681 260.169,298.526 260.760 C 298.384 261.303,297.825 261.595,296.564 261.785 C 295.176 261.993,294.800 262.214,294.800 262.825 C 294.800 263.466,294.516 263.600,293.163 263.600 C 291.862 263.600,291.482 263.764,291.316 264.400 C 291.139 265.075,290.770 265.200,288.957 265.200 C 287.240 265.200,286.706 265.361,286.307 266.000 C 285.923 266.615,285.374 266.800,283.936 266.800 C 281.551 266.800,280.800 267.097,280.800 268.043 C 280.800 268.738,280.454 268.800,276.600 268.800 C 272.667 268.800,272.400 268.851,272.400 269.600 C 272.400 270.857,242.999 270.857,242.600 269.600 C 242.368 268.868,241.995 268.800,238.201 268.800 C 234.207 268.800,234.051 268.767,233.928 267.900 C 233.813 267.094,233.544 266.988,231.342 266.882 C 229.295 266.784,228.850 266.633,228.679 265.982 C 228.505 265.314,228.120 265.200,226.037 265.200 C 223.867 265.200,223.600 265.112,223.600 264.400 C 223.600 263.719,223.333 263.600,221.800 263.600 C 220.301 263.600,220.000 263.474,220.000 262.843 C 220.000 261.981,219.255 261.600,217.567 261.600 C 216.667 261.600,216.400 261.417,216.400 260.800 C 216.400 260.137,216.133 260.000,214.847 260.000 C 213.630 260.000,213.248 259.827,213.084 259.200 C 212.919 258.567,212.538 258.400,211.265 258.400 C 209.901 258.400,209.636 258.263,209.528 257.500 C 209.448 256.937,209.079 256.554,208.541 256.478 C 208.068 256.410,207.590 256.005,207.478 255.578 C 207.324 254.989,206.925 254.800,205.837 254.800 C 203.693 254.800,203.749 253.302,205.900 253.124 C 206.988 253.034,207.505 252.760,207.784 252.125 C 207.996 251.643,208.491 251.165,208.884 251.062 C 210.035 250.761,209.994 182.179,208.843 181.814 C 208.427 181.682,207.994 181.219,207.881 180.787 C 207.764 180.339,207.334 180.000,206.884 180.000 C 206.430 180.000,206.004 179.660,205.884 179.200 C 205.689 178.453,205.338 178.400,200.637 178.400 C 195.867 178.400,195.600 178.442,195.600 179.200 C 195.600 179.733,195.333 180.000,194.800 180.000 C 194.267 180.000,194.000 180.267,194.000 180.800 C 194.000 181.331,193.733 181.600,193.208 181.600 C 192.696 181.600,192.326 181.954,192.164 182.600 C 192.007 183.226,191.630 183.600,191.157 183.600 C 190.667 183.600,190.400 183.882,190.400 184.400 C 190.400 184.933,190.133 185.200,189.600 185.200 C 189.076 185.200,188.800 185.467,188.800 185.972 C 188.800 186.468,188.478 186.790,187.900 186.872 C 187.322 186.954,186.954 187.322,186.872 187.900 C 186.790 188.478,186.468 188.800,185.972 188.800 C 185.467 188.800,185.200 189.076,185.200 189.600 C 185.200 190.133,184.933 190.400,184.400 190.400 C 183.882 190.400,183.600 190.667,183.600 191.157 C 183.600 191.630,183.226 192.007,182.600 192.164 C 181.954 192.326,181.600 192.696,181.600 193.208 C 181.600 193.733,181.331 194.000,180.800 194.000 C 180.267 194.000,180.000 194.267,180.000 194.800 C 180.000 195.333,179.733 195.600,179.200 195.600 C 178.613 195.600,178.400 195.867,178.400 196.600 C 178.400 197.400,178.200 197.600,177.400 197.600 C 176.667 197.600,176.400 197.813,176.400 198.400 C 176.400 198.933,176.133 199.200,175.600 199.200 C 175.076 199.200,174.800 199.467,174.800 199.973 C 174.800 200.398,174.440 200.860,174.000 201.000 C 172.787 201.385,172.764 209.600,173.976 209.600 C 174.584 209.600,174.779 209.925,174.876 211.100 C 174.992 212.509,175.104 212.623,176.700 212.977 C 177.934 213.250,178.400 213.552,178.400 214.077 C 178.400 214.728,178.815 214.800,182.600 214.800 C 186.449 214.800,186.800 214.737,186.800 214.045 C 186.800 213.458,187.198 213.231,188.600 213.021 C 190.022 212.808,190.400 212.588,190.400 211.975 C 190.400 211.467,190.675 211.200,191.200 211.200 C 191.986 211.200,192.000 211.467,192.000 227.000 C 192.000 242.533,191.986 242.800,191.200 242.800 C 190.655 242.800,190.400 242.533,190.400 241.963 C 190.400 241.475,190.081 241.042,189.637 240.926 C 189.217 240.816,188.784 240.383,188.674 239.963 C 188.558 239.519,188.125 239.200,187.637 239.200 C 187.067 239.200,186.800 238.945,186.800 238.400 C 186.800 237.867,186.533 237.600,186.000 237.600 C 185.413 237.600,185.200 237.333,185.200 236.600 C 185.200 235.867,184.987 235.600,184.400 235.600 C 183.867 235.600,183.600 235.333,183.600 234.800 C 183.600 234.213,183.333 234.000,182.600 234.000 C 181.681 234.000,181.600 233.853,181.600 232.200 C 181.600 230.667,181.481 230.400,180.800 230.400 C 180.267 230.400,180.000 230.133,180.000 229.600 C 180.000 229.067,179.733 228.800,179.200 228.800 C 178.583 228.800,178.400 228.533,178.400 227.633 C 178.400 225.945,178.019 225.200,177.157 225.200 C 176.667 225.200,176.400 224.918,176.400 224.400 C 176.400 223.867,176.133 223.600,175.600 223.600 C 174.919 223.600,174.800 223.333,174.800 221.800 C 174.800 220.284,174.677 220.000,174.023 220.000 C 173.395 220.000,173.222 219.674,173.123 218.300 C 173.021 216.887,172.848 216.578,172.100 216.472 C 171.341 216.364,171.200 216.098,171.200 214.772 C 171.200 213.467,171.064 213.200,170.400 213.200 C 169.682 213.200,169.600 212.933,169.600 210.600 C 169.600 208.267,169.518 208.000,168.800 208.000 C 168.108 208.000,168.000 207.733,168.000 206.033 C 168.000 203.551,167.711 202.800,166.757 202.800 C 166.092 202.800,166.000 202.484,166.000 200.200 C 166.000 197.867,165.918 197.600,165.200 197.600 C 164.442 197.600,164.400 197.333,164.400 192.563 C 164.400 187.862,164.347 187.511,163.600 187.316 C 162.824 187.113,162.800 186.770,162.800 175.800 C 162.800 164.830,162.824 164.487,163.600 164.284 C 164.336 164.092,164.400 163.738,164.400 159.884 C 164.400 156.030,164.464 155.677,165.200 155.484 C 165.917 155.297,166.000 154.938,166.000 152.037 C 166.000 149.128,166.077 148.800,166.757 148.800 C 167.707 148.800,168.000 148.049,168.000 145.614 C 168.000 144.030,168.140 143.657,168.800 143.484 C 169.431 143.319,169.600 142.938,169.600 141.684 C 169.600 140.430,169.769 140.049,170.400 139.884 C 171.036 139.718,171.200 139.338,171.200 138.037 C 171.200 136.686,171.335 136.400,171.972 136.400 C 172.455 136.400,172.809 136.063,172.918 135.500 C 173.013 135.005,173.116 138.082,173.146 142.337 C 173.197 149.715,173.237 150.085,174.000 150.284 C 174.687 150.464,174.800 150.830,174.800 152.884 C 174.800 154.938,174.913 155.304,175.600 155.484 C 176.043 155.600,176.400 156.030,176.400 156.447 C 176.400 156.984,176.687 157.200,177.400 157.200 C 178.304 157.200,178.400 157.358,178.400 158.837 C 178.400 160.112,178.569 160.519,179.163 160.674 C 179.583 160.784,180.015 161.212,180.123 161.626 C 180.258 162.145,180.828 162.459,181.960 162.640 C 183.203 162.839,183.600 163.084,183.600 163.651 C 183.600 164.118,183.884 164.400,184.353 164.400 C 184.770 164.400,185.200 164.757,185.316 165.200 C 185.496 165.890,185.862 166.000,187.963 166.000 C 189.880 166.000,190.400 166.130,190.400 166.610 C 190.400 168.331,201.847 168.604,202.595 166.900 C 202.940 166.114,203.287 166.000,205.332 166.000 C 207.338 166.000,207.705 165.885,207.884 165.200 C 208.048 164.573,208.430 164.400,209.647 164.400 C 210.915 164.400,211.200 164.258,211.200 163.628 C 211.200 163.132,211.522 162.810,212.100 162.728 C 212.678 162.646,213.046 162.278,213.128 161.700 C 213.210 161.122,213.532 160.800,214.028 160.800 C 214.533 160.800,214.800 160.524,214.800 160.000 C 214.800 159.467,215.067 159.200,215.600 159.200 C 216.187 159.200,216.400 158.933,216.400 158.200 C 216.400 157.482,216.616 157.200,217.165 157.200 C 217.744 157.200,217.995 156.816,218.197 155.617 C 218.376 154.556,218.718 153.953,219.232 153.790 C 220.445 153.405,220.435 105.639,219.222 105.322 C 218.663 105.175,218.409 104.707,218.322 103.659 C 218.233 102.598,217.954 102.092,217.300 101.805 C 216.805 101.588,216.400 101.093,216.400 100.705 C 216.400 100.267,216.097 100.000,215.600 100.000 C 215.067 100.000,214.800 99.733,214.800 99.200 C 214.800 98.676,214.533 98.400,214.028 98.400 C 213.532 98.400,213.210 98.078,213.128 97.500 C 213.048 96.937,212.679 96.554,212.142 96.478 C 210.630 96.262,210.615 93.340,212.125 93.125 C 212.679 93.046,213.047 92.670,213.128 92.100 C 213.236 91.341,213.502 91.200,214.828 91.200 C 216.133 91.200,216.400 91.064,216.400 90.400 C 216.400 89.688,216.667 89.600,218.837 89.600 C 220.917 89.600,221.305 89.485,221.479 88.821 C 221.632 88.235,222.093 88.012,223.341 87.921 C 224.712 87.821,225.022 87.644,225.128 86.900 C 225.245 86.073,225.465 86.000,227.828 86.000 C 230.133 86.000,230.400 85.917,230.400 85.200 C 230.400 84.482,230.667 84.400,233.000 84.400 C 235.318 84.400,235.600 84.315,235.600 83.614 C 235.600 82.887,235.930 82.818,239.900 82.714 C 244.015 82.605,244.205 82.561,244.328 81.700 L 244.456 80.800 257.428 80.800 C 269.889 80.800,270.400 80.830,270.400 81.557 M16.676 91.457 C 16.524 91.609,16.400 92.063,16.400 92.467 C 16.400 93.103,16.055 93.200,13.800 93.200 C 11.467 93.200,11.200 93.282,11.200 94.000 C 11.200 94.652,10.933 94.800,9.763 94.800 C 8.675 94.800,8.276 94.989,8.122 95.578 C 8.010 96.005,7.532 96.410,7.059 96.478 C 6.521 96.554,6.152 96.937,6.072 97.500 C 5.990 98.078,5.668 98.400,5.172 98.400 C 4.683 98.400,4.400 98.676,4.400 99.153 C 4.400 99.570,4.043 100.000,3.600 100.116 C 2.967 100.281,2.800 100.662,2.800 101.935 C 2.800 103.299,2.663 103.564,1.900 103.672 C 1.098 103.786,0.987 104.060,0.877 106.190 C 0.810 107.505,0.541 108.713,0.279 108.875 C -0.061 109.085,0.015 109.323,0.546 109.711 C 1.229 110.210,1.237 110.306,0.644 110.898 C -0.125 111.668,-0.364 150.400,0.400 150.400 C 0.620 150.400,0.800 151.285,0.800 152.367 C 0.800 154.849,1.089 155.600,2.043 155.600 C 2.533 155.600,2.800 155.882,2.800 156.400 C 2.800 156.933,3.067 157.200,3.600 157.200 C 4.270 157.200,4.400 157.467,4.400 158.837 C 4.400 160.129,4.566 160.518,5.187 160.681 C 5.619 160.794,6.077 161.212,6.203 161.611 C 6.352 162.078,6.997 162.430,8.017 162.603 C 9.216 162.805,9.600 163.056,9.600 163.635 C 9.600 164.124,9.879 164.400,10.373 164.400 C 10.798 164.400,11.260 164.760,11.400 165.200 C 11.617 165.883,12.005 166.000,14.064 166.000 C 16.093 166.000,16.506 166.120,16.673 166.757 C 17.156 168.603,28.800 168.603,28.800 166.757 C 28.800 166.092,29.116 166.000,31.400 166.000 C 33.733 166.000,34.000 165.918,34.000 165.200 C 34.000 164.533,34.267 164.400,35.600 164.400 C 36.914 164.400,37.200 164.262,37.200 163.628 C 37.200 163.132,37.522 162.810,38.100 162.728 C 38.678 162.646,39.046 162.278,39.128 161.700 C 39.210 161.122,39.532 160.800,40.028 160.800 C 40.524 160.800,40.800 160.524,40.800 160.028 C 40.800 159.532,41.122 159.210,41.700 159.128 C 42.263 159.048,42.646 158.679,42.722 158.141 C 42.790 157.668,43.195 157.190,43.622 157.078 C 44.207 156.925,44.400 156.525,44.400 155.464 C 44.400 154.405,44.599 153.991,45.200 153.800 C 45.988 153.550,46.000 153.195,46.000 129.536 C 46.000 105.862,45.989 105.522,45.200 105.316 C 44.576 105.153,44.400 104.770,44.400 103.580 C 44.400 102.434,44.211 101.994,43.643 101.814 C 43.227 101.682,42.794 101.219,42.681 100.787 C 42.559 100.320,42.134 100.000,41.637 100.000 C 41.067 100.000,40.800 99.745,40.800 99.200 C 40.800 98.676,40.533 98.400,40.028 98.400 C 39.532 98.400,39.210 98.078,39.128 97.500 C 39.046 96.922,38.678 96.554,38.100 96.472 C 37.522 96.390,37.200 96.068,37.200 95.572 C 37.200 95.083,36.924 94.800,36.447 94.800 C 36.030 94.800,35.600 94.443,35.484 94.000 C 35.304 93.312,34.938 93.200,32.865 93.200 C 30.671 93.200,30.444 93.120,30.328 92.300 C 30.199 91.394,17.522 90.612,16.676 91.457 M81.080 91.454 C 80.926 91.607,80.800 92.063,80.800 92.467 C 80.800 93.056,80.485 93.200,79.200 93.200 C 77.867 93.200,77.600 93.333,77.600 94.000 C 77.600 94.545,77.333 94.800,76.763 94.800 C 76.275 94.800,75.842 95.119,75.726 95.563 C 75.616 95.983,75.183 96.416,74.763 96.526 C 74.319 96.642,74.000 97.075,74.000 97.563 C 74.000 98.133,73.745 98.400,73.200 98.400 C 72.750 98.400,72.400 98.667,72.400 99.010 C 72.400 99.345,71.950 99.791,71.400 100.000 C 70.850 100.209,70.400 100.634,70.400 100.943 C 70.400 101.253,70.040 101.601,69.600 101.716 C 69.121 101.841,68.800 102.262,68.800 102.763 C 68.800 103.324,68.545 103.600,68.027 103.600 C 67.602 103.600,67.140 103.960,67.000 104.400 C 66.860 104.840,66.398 105.200,65.973 105.200 C 65.476 105.200,65.200 105.476,65.200 105.973 C 65.200 106.398,64.840 106.860,64.400 107.000 C 63.960 107.140,63.600 107.602,63.600 108.027 C 63.600 108.545,63.324 108.800,62.763 108.800 C 62.262 108.800,61.841 109.121,61.716 109.600 C 61.601 110.040,61.253 110.400,60.943 110.400 C 60.634 110.400,60.209 110.850,60.000 111.400 C 59.791 111.950,59.345 112.400,59.010 112.400 C 58.490 112.400,58.400 113.290,58.400 118.400 C 58.400 124.133,58.436 124.400,59.200 124.400 C 59.733 124.400,60.000 124.667,60.000 125.200 C 60.000 125.697,60.267 126.000,60.705 126.000 C 61.093 126.000,61.588 126.405,61.805 126.900 C 62.518 128.525,72.000 128.409,72.000 126.775 C 72.000 126.215,72.277 126.000,73.000 126.000 C 73.733 126.000,74.000 125.787,74.000 125.200 C 74.000 124.667,74.267 124.400,74.800 124.400 C 75.589 124.400,75.600 124.667,75.600 143.410 L 75.600 162.420 76.600 162.800 C 77.406 163.106,77.600 163.454,77.600 164.590 C 77.600 165.968,77.636 166.000,79.200 166.000 C 80.503 166.000,80.800 166.140,80.800 166.757 C 80.800 167.768,81.548 168.000,84.807 168.000 C 87.904 168.000,89.600 167.508,89.600 166.610 C 89.600 166.267,89.950 166.000,90.400 166.000 C 90.924 166.000,91.200 165.733,91.200 165.228 C 91.200 164.732,91.522 164.410,92.100 164.328 L 93.000 164.200 93.000 129.600 L 93.000 95.000 92.100 94.872 C 91.522 94.790,91.200 94.468,91.200 93.972 C 91.200 93.476,90.924 93.200,90.428 93.200 C 89.932 93.200,89.610 92.878,89.528 92.300 C 89.399 91.390,81.895 90.638,81.080 91.454 M131.680 91.680 C 131.416 91.944,131.200 92.394,131.200 92.680 C 131.200 93.020,130.646 93.200,129.600 93.200 C 128.267 93.200,128.000 93.333,128.000 94.000 C 128.000 94.681,127.733 94.800,126.200 94.800 C 124.667 94.800,124.400 94.919,124.400 95.600 C 124.400 96.133,124.133 96.400,123.600 96.400 C 123.013 96.400,122.800 96.667,122.800 97.400 C 122.800 98.200,122.600 98.400,121.800 98.400 C 121.067 98.400,120.800 98.613,120.800 99.200 C 120.800 99.733,120.533 100.000,120.000 100.000 C 119.319 100.000,119.200 100.267,119.200 101.800 C 119.200 103.292,119.072 103.600,118.451 103.600 C 117.889 103.600,117.640 103.992,117.451 105.173 C 117.277 106.260,116.952 106.825,116.400 107.000 C 115.180 107.387,115.134 152.000,116.353 152.000 C 117.121 152.000,117.584 153.008,117.595 154.700 C 117.598 155.332,117.839 155.600,118.400 155.600 C 119.070 155.600,119.200 155.867,119.200 157.237 C 119.200 158.538,119.364 158.918,120.000 159.084 C 120.443 159.200,120.800 159.630,120.800 160.047 C 120.800 160.584,121.087 160.800,121.800 160.800 C 122.548 160.800,122.800 161.011,122.800 161.637 C 122.800 162.138,123.121 162.559,123.600 162.684 C 124.040 162.799,124.400 163.123,124.400 163.404 C 124.400 164.033,125.295 164.400,126.833 164.400 C 127.733 164.400,128.000 164.583,128.000 165.200 C 128.000 165.937,128.267 166.000,131.400 166.000 L 134.800 166.000 134.800 160.847 C 134.800 156.030,134.852 155.680,135.600 155.484 C 136.333 155.292,136.400 154.938,136.400 151.264 C 136.400 147.605,136.330 147.232,135.600 147.000 C 135.160 146.860,134.800 146.398,134.800 145.973 C 134.800 145.467,134.524 145.200,134.000 145.200 C 133.214 145.200,133.200 144.933,133.200 129.600 C 133.200 114.267,133.214 114.000,134.000 114.000 C 134.587 114.000,134.800 113.733,134.800 113.000 C 134.800 112.267,135.013 112.000,135.600 112.000 C 136.133 112.000,136.400 111.733,136.400 111.200 C 136.400 110.484,136.667 110.400,138.953 110.400 C 141.170 110.400,141.534 110.505,141.716 111.200 C 141.841 111.679,142.262 112.000,142.763 112.000 C 143.476 112.000,143.600 112.242,143.600 113.637 C 143.600 114.924,143.767 115.319,144.379 115.479 C 144.965 115.632,145.188 116.093,145.279 117.341 C 145.471 119.979,148.532 119.942,148.723 117.300 C 148.822 115.926,148.995 115.600,149.623 115.600 C 150.117 115.600,150.400 115.326,150.400 114.847 C 150.400 114.430,150.757 114.000,151.200 113.884 C 151.833 113.719,152.000 113.338,152.000 112.065 C 152.000 110.701,152.137 110.436,152.900 110.328 C 153.648 110.222,153.821 109.913,153.923 108.500 C 154.022 107.126,154.195 106.800,154.823 106.800 C 155.333 106.800,155.600 106.525,155.600 106.000 C 155.600 105.467,155.867 105.200,156.400 105.200 C 157.137 105.200,157.200 104.933,157.200 101.800 C 157.200 98.667,157.137 98.400,156.400 98.400 C 155.855 98.400,155.600 98.133,155.600 97.563 C 155.600 97.066,155.280 96.641,154.813 96.519 C 154.381 96.406,153.918 95.973,153.786 95.557 C 153.604 94.983,153.165 94.800,151.973 94.800 C 150.667 94.800,150.400 94.664,150.400 94.000 C 150.400 93.319,150.133 93.200,148.600 93.200 C 147.101 93.200,146.800 93.074,146.800 92.443 C 146.800 92.026,146.515 91.576,146.167 91.443 C 144.922 90.965,132.186 91.174,131.680 91.680 M254.800 92.186 C 254.800 93.121,254.660 93.200,253.000 93.200 C 251.467 93.200,251.200 93.319,251.200 94.000 C 251.200 94.533,250.933 94.800,250.400 94.800 C 249.883 94.800,249.600 95.067,249.600 95.553 C 249.600 95.970,249.243 96.400,248.800 96.516 C 248.321 96.641,248.000 97.062,248.000 97.563 C 248.000 98.189,247.748 98.400,247.000 98.400 C 246.267 98.400,246.000 98.613,246.000 99.200 C 246.000 99.733,245.733 100.000,245.200 100.000 C 244.683 100.000,244.400 100.267,244.400 100.753 C 244.400 101.170,244.043 101.600,243.600 101.716 C 243.121 101.841,242.800 102.262,242.800 102.763 C 242.800 103.389,242.548 103.600,241.800 103.600 C 241.067 103.600,240.800 103.813,240.800 104.400 C 240.800 104.933,240.533 105.200,240.000 105.200 C 239.476 105.200,239.200 105.467,239.200 105.973 C 239.200 106.398,238.840 106.860,238.400 107.000 C 237.960 107.140,237.600 107.602,237.600 108.027 C 237.600 108.585,237.322 108.800,236.600 108.800 C 235.867 108.800,235.600 109.013,235.600 109.600 C 235.600 110.133,235.333 110.400,234.800 110.400 C 234.255 110.400,234.000 110.667,234.000 111.237 C 234.000 111.735,233.679 112.159,233.210 112.282 C 231.556 112.714,231.452 124.094,233.100 124.328 C 233.678 124.410,234.000 124.732,234.000 125.228 C 234.000 125.733,234.276 126.000,234.800 126.000 C 235.318 126.000,235.600 126.267,235.600 126.757 C 235.600 127.799,236.342 128.000,240.183 128.000 C 244.604 128.000,246.000 127.700,246.000 126.750 C 246.000 126.255,246.285 126.000,246.837 126.000 C 247.325 126.000,247.758 125.681,247.874 125.237 C 247.984 124.817,248.417 124.384,248.837 124.274 C 249.580 124.080,249.600 124.582,249.600 143.275 C 249.600 162.138,249.614 162.479,250.400 162.684 C 250.908 162.817,251.200 163.230,251.200 163.814 C 251.200 165.565,251.606 166.000,253.243 166.000 C 254.504 166.000,254.800 166.144,254.800 166.757 C 254.800 168.569,262.852 168.574,263.326 166.763 C 263.442 166.319,263.875 166.000,264.363 166.000 C 264.933 166.000,265.200 165.745,265.200 165.200 C 265.200 164.667,265.467 164.400,266.000 164.400 C 266.794 164.400,266.800 164.133,266.800 129.600 C 266.800 95.067,266.794 94.800,266.000 94.800 C 265.467 94.800,265.200 94.533,265.200 94.000 C 265.200 93.476,264.933 93.200,264.428 93.200 C 263.932 93.200,263.610 92.878,263.528 92.300 C 263.405 91.439,263.215 91.395,259.100 91.286 L 254.800 91.173 254.800 92.186 M199.205 110.400 C 200.741 110.400,200.755 110.414,200.877 112.100 C 200.979 113.513,201.152 113.822,201.900 113.928 L 202.800 114.056 202.800 129.600 L 202.800 145.144 201.900 145.272 C 201.322 145.354,200.954 145.722,200.872 146.300 C 200.790 146.878,200.468 147.200,199.972 147.200 C 199.467 147.200,199.200 147.476,199.200 148.000 C 199.200 149.301,194.113 149.204,193.928 147.900 C 193.846 147.322,193.478 146.954,192.900 146.872 L 192.000 146.744 192.000 129.372 L 192.000 112.000 193.000 112.000 C 193.733 112.000,194.000 111.787,194.000 111.200 C 194.000 110.533,194.267 110.400,195.600 110.400 C 196.976 110.400,197.208 110.274,197.254 109.500 L 197.309 108.600 197.482 109.500 C 197.626 110.249,197.916 110.400,199.205 110.400 M27.004 112.021 C 27.177 113.047,27.523 113.648,28.032 113.810 C 29.224 114.189,29.235 145.200,28.043 145.200 C 27.580 145.200,27.194 145.569,27.048 146.152 C 26.916 146.676,26.447 147.199,26.004 147.315 C 25.562 147.430,25.200 147.812,25.200 148.163 C 25.200 148.680,24.712 148.800,22.600 148.800 C 20.228 148.800,20.000 148.727,20.000 147.963 C 20.000 147.462,19.679 147.041,19.200 146.916 C 18.416 146.711,18.400 146.370,18.400 129.353 C 18.400 112.267,18.412 112.000,19.200 112.000 C 19.725 112.000,20.000 111.733,20.000 111.223 C 20.000 110.372,21.762 110.065,25.071 110.338 C 26.667 110.470,26.754 110.546,27.004 112.021 M315.600 111.200 C 315.600 111.787,315.867 112.000,316.600 112.000 C 317.519 112.000,317.600 112.147,317.600 113.800 C 317.600 115.333,317.719 115.600,318.400 115.600 C 319.185 115.600,319.200 115.867,319.200 129.600 C 319.200 143.333,319.185 143.600,318.400 143.600 C 317.737 143.600,317.600 143.867,317.600 145.157 C 317.600 146.483,317.452 146.750,316.600 146.964 C 315.954 147.126,315.600 147.496,315.600 148.008 C 315.600 148.716,315.325 148.800,313.000 148.800 C 310.697 148.800,310.400 148.712,310.400 148.027 C 310.400 147.602,310.040 147.140,309.600 147.000 C 309.160 146.860,308.800 146.398,308.800 145.973 C 308.800 145.415,308.522 145.200,307.800 145.200 L 306.800 145.200 306.800 129.628 L 306.800 114.056 307.700 113.928 C 308.263 113.848,308.646 113.479,308.722 112.941 C 308.790 112.468,309.195 111.990,309.622 111.878 C 310.050 111.766,310.400 111.388,310.400 111.037 C 310.400 110.520,310.888 110.400,313.000 110.400 C 315.333 110.400,315.600 110.482,315.600 111.200 M21.800 179.200 C 21.660 179.640,21.198 180.000,20.773 180.000 C 20.267 180.000,20.000 180.276,20.000 180.800 C 20.000 181.333,19.733 181.600,19.200 181.600 C 18.613 181.600,18.400 181.867,18.400 182.600 C 18.400 183.400,18.200 183.600,17.400 183.600 C 16.667 183.600,16.400 183.813,16.400 184.400 C 16.400 184.933,16.133 185.200,15.600 185.200 C 15.083 185.200,14.800 185.467,14.800 185.953 C 14.800 186.370,14.443 186.800,14.000 186.916 C 13.521 187.041,13.200 187.462,13.200 187.963 C 13.200 188.589,12.948 188.800,12.200 188.800 C 11.467 188.800,11.200 189.013,11.200 189.600 C 11.200 190.133,10.933 190.400,10.400 190.400 C 9.883 190.400,9.600 190.667,9.600 191.153 C 9.600 191.570,9.243 192.000,8.800 192.116 C 8.321 192.241,8.000 192.662,8.000 193.163 C 8.000 193.789,7.748 194.000,7.000 194.000 C 6.267 194.000,6.000 194.213,6.000 194.800 C 6.000 195.333,5.733 195.600,5.200 195.600 C 4.613 195.600,4.400 195.867,4.400 196.600 C 4.400 197.333,4.187 197.600,3.600 197.600 C 3.067 197.600,2.800 197.867,2.800 198.400 C 2.800 198.987,2.533 199.200,1.800 199.200 C 1.067 199.200,0.800 199.413,0.800 200.000 C 0.800 200.440,0.620 200.800,0.400 200.800 C 0.158 200.800,0.000 202.533,0.000 205.200 C 0.000 207.678,0.164 209.600,0.376 209.600 C 0.583 209.600,0.808 210.275,0.876 211.100 C 0.993 212.512,1.099 212.621,2.700 212.957 C 3.962 213.222,4.400 213.505,4.400 214.057 C 4.400 215.218,12.773 215.190,13.077 214.029 C 13.215 213.500,13.770 213.174,14.839 212.993 C 16.017 212.794,16.400 212.542,16.400 211.965 C 16.400 211.476,16.678 211.200,17.172 211.200 C 17.655 211.200,18.009 210.863,18.118 210.300 C 18.213 209.805,18.316 218.805,18.346 230.300 C 18.399 250.664,18.420 251.200,19.172 251.200 C 19.668 251.200,19.990 251.522,20.072 252.100 C 20.152 252.663,20.521 253.046,21.059 253.122 C 21.532 253.190,22.010 253.595,22.122 254.022 C 22.439 255.236,30.400 255.214,30.400 254.000 C 30.400 253.383,30.667 253.200,31.567 253.200 C 33.231 253.200,34.000 252.822,34.000 252.004 C 34.000 251.613,34.360 251.199,34.800 251.084 C 35.592 250.877,35.600 250.538,35.600 216.464 C 35.600 182.405,35.592 182.051,34.800 181.800 C 34.360 181.660,34.000 181.198,34.000 180.773 C 34.000 180.215,33.722 180.000,33.000 180.000 C 32.267 180.000,32.000 179.787,32.000 179.200 C 32.000 178.443,31.733 178.400,27.027 178.400 C 22.405 178.400,22.036 178.457,21.800 179.200 M74.000 179.200 C 74.000 179.912,73.733 180.000,71.563 180.000 C 69.485 180.000,69.095 180.115,68.922 180.778 C 68.810 181.205,68.332 181.610,67.859 181.678 C 67.321 181.754,66.952 182.137,66.872 182.700 C 66.790 183.278,66.468 183.600,65.972 183.600 C 65.467 183.600,65.200 183.876,65.200 184.400 C 65.200 184.933,64.933 185.200,64.400 185.200 C 63.876 185.200,63.600 185.467,63.600 185.972 C 63.600 186.468,63.278 186.790,62.700 186.872 C 62.122 186.954,61.754 187.322,61.672 187.900 C 61.590 188.478,61.268 188.800,60.772 188.800 C 60.135 188.800,60.000 189.086,60.000 190.437 C 60.000 191.738,59.836 192.118,59.200 192.284 C 58.411 192.490,58.400 192.830,58.400 216.647 C 58.400 240.533,58.409 240.800,59.200 240.800 C 59.870 240.800,60.000 241.067,60.000 242.437 C 60.000 243.738,60.164 244.118,60.800 244.284 C 61.243 244.400,61.600 244.830,61.600 245.247 C 61.600 245.784,61.887 246.000,62.600 246.000 C 63.400 246.000,63.600 246.200,63.600 247.000 C 63.600 247.733,63.813 248.000,64.400 248.000 C 64.933 248.000,65.200 248.267,65.200 248.800 C 65.200 249.317,65.467 249.600,65.953 249.600 C 66.370 249.600,66.800 249.957,66.916 250.400 C 67.081 251.033,67.462 251.200,68.735 251.200 C 70.099 251.200,70.364 251.337,70.472 252.100 C 70.587 252.908,70.855 253.012,73.100 253.119 C 75.272 253.223,75.600 253.341,75.600 254.019 C 75.600 255.246,87.163 255.228,87.484 254.000 C 87.650 253.364,88.032 253.199,89.347 253.195 C 91.691 253.187,92.696 252.841,92.926 251.963 C 93.042 251.519,93.475 251.200,93.963 251.200 C 94.533 251.200,94.800 250.945,94.800 250.400 C 94.800 249.867,95.067 249.600,95.600 249.600 C 96.124 249.600,96.400 249.333,96.400 248.828 C 96.400 248.332,96.722 248.010,97.300 247.928 C 97.878 247.846,98.246 247.478,98.328 246.900 C 98.410 246.322,98.732 246.000,99.228 246.000 C 99.733 246.000,100.000 245.724,100.000 245.200 C 100.000 244.667,100.267 244.400,100.800 244.400 C 101.481 244.400,101.600 244.133,101.600 242.600 C 101.600 240.947,101.681 240.800,102.600 240.800 C 103.564 240.800,103.600 240.707,103.600 238.200 C 103.600 235.867,103.682 235.600,104.400 235.600 C 105.189 235.600,105.200 235.333,105.200 216.600 C 105.200 197.867,105.189 197.600,104.400 197.600 C 103.675 197.600,103.600 197.333,103.600 194.774 C 103.600 191.786,103.152 190.400,102.186 190.400 C 101.864 190.400,101.600 190.040,101.600 189.600 C 101.600 189.075,101.333 188.800,100.823 188.800 C 100.195 188.800,100.022 188.474,99.923 187.100 C 99.821 185.687,99.648 185.378,98.900 185.272 C 98.322 185.190,98.000 184.868,98.000 184.372 C 98.000 183.738,97.714 183.600,96.400 183.600 C 95.043 183.600,94.800 183.473,94.800 182.763 C 94.800 182.266,94.480 181.841,94.013 181.719 C 93.581 181.606,93.118 181.173,92.986 180.757 C 92.787 180.129,92.351 180.000,90.420 180.000 C 88.430 180.000,88.063 179.884,87.884 179.200 C 87.685 178.439,87.338 178.400,80.837 178.400 C 74.267 178.400,74.000 178.431,74.000 179.200 M248.000 179.200 C 248.000 179.912,247.733 180.000,245.563 180.000 C 243.485 180.000,243.095 180.115,242.922 180.778 C 242.810 181.205,242.332 181.610,241.859 181.678 C 241.321 181.754,240.952 182.137,240.872 182.700 C 240.790 183.278,240.468 183.600,239.972 183.600 C 239.467 183.600,239.200 183.876,239.200 184.400 C 239.200 184.933,238.933 185.200,238.400 185.200 C 237.876 185.200,237.600 185.467,237.600 185.972 C 237.600 186.468,237.278 186.790,236.700 186.872 C 236.122 186.954,235.754 187.322,235.672 187.900 C 235.590 188.478,235.268 188.800,234.772 188.800 C 234.135 188.800,234.000 189.086,234.000 190.437 C 234.000 191.712,233.831 192.119,233.237 192.274 C 232.033 192.589,232.011 193.005,232.005 216.250 C 232.000 239.690,232.056 240.800,233.250 240.800 C 233.861 240.800,234.000 241.103,234.000 242.437 C 234.000 243.738,234.164 244.118,234.800 244.284 C 235.240 244.399,235.600 244.820,235.600 245.219 C 235.600 245.667,235.944 245.993,236.500 246.072 C 237.078 246.154,237.446 246.522,237.528 247.100 C 237.610 247.678,237.932 248.000,238.428 248.000 C 238.933 248.000,239.200 248.276,239.200 248.800 C 239.200 249.333,239.467 249.600,240.000 249.600 C 240.533 249.600,240.800 249.867,240.800 250.400 C 240.800 251.080,241.067 251.200,242.572 251.200 C 244.105 251.200,244.362 251.321,244.472 252.100 C 244.587 252.908,244.855 253.012,247.100 253.119 C 249.272 253.223,249.600 253.341,249.600 254.019 C 249.600 255.246,261.163 255.228,261.484 254.000 C 261.639 253.406,262.030 253.200,262.997 253.200 C 265.435 253.200,266.800 252.751,266.800 251.950 C 266.800 251.417,267.089 251.200,267.800 251.200 C 268.533 251.200,268.800 250.987,268.800 250.400 C 268.800 249.867,269.067 249.600,269.600 249.600 C 270.133 249.600,270.400 249.333,270.400 248.800 C 270.400 248.267,270.667 248.000,271.200 248.000 C 271.787 248.000,272.000 247.733,272.000 247.000 C 272.000 246.200,272.200 246.000,273.000 246.000 C 273.733 246.000,274.000 245.787,274.000 245.200 C 274.000 244.667,274.267 244.400,274.800 244.400 C 275.481 244.400,275.600 244.133,275.600 242.600 C 275.600 241.067,275.719 240.800,276.400 240.800 C 277.117 240.800,277.200 240.533,277.200 238.228 C 277.200 235.865,277.273 235.645,278.100 235.528 L 279.000 235.400 279.104 216.500 L 279.208 197.600 278.204 197.600 C 277.210 197.600,277.200 197.566,277.200 194.163 C 277.200 191.062,277.122 190.705,276.400 190.516 C 275.957 190.400,275.600 189.970,275.600 189.553 C 275.600 189.074,275.317 188.800,274.824 188.800 C 274.216 188.800,274.021 188.475,273.924 187.300 C 273.833 186.197,273.562 185.695,272.900 185.405 C 272.405 185.188,272.000 184.693,272.000 184.305 C 272.000 183.751,271.663 183.600,270.428 183.600 C 269.102 183.600,268.836 183.459,268.728 182.700 C 268.646 182.122,268.278 181.754,267.700 181.672 C 267.122 181.590,266.800 181.268,266.800 180.772 C 266.800 180.088,266.502 180.000,264.200 180.000 C 261.867 180.000,261.600 179.918,261.600 179.200 C 261.600 178.431,261.333 178.400,254.800 178.400 C 248.267 178.400,248.000 178.431,248.000 179.200 M129.884 185.449 C 129.728 185.605,129.600 186.063,129.600 186.467 C 129.600 186.933,129.309 187.200,128.800 187.200 C 128.267 187.200,128.000 187.467,128.000 188.000 C 128.000 188.524,127.733 188.800,127.227 188.800 C 126.802 188.800,126.346 189.141,126.214 189.557 C 126.082 189.973,125.619 190.406,125.187 190.519 C 124.720 190.641,124.400 191.066,124.400 191.563 C 124.400 192.133,124.145 192.400,123.600 192.400 C 123.067 192.400,122.800 192.667,122.800 193.200 C 122.800 193.724,122.533 194.000,122.027 194.000 C 121.602 194.000,121.146 194.341,121.014 194.757 C 120.882 195.173,120.419 195.606,119.987 195.719 C 119.520 195.841,119.200 196.266,119.200 196.763 C 119.200 197.325,118.945 197.600,118.424 197.600 C 117.816 197.600,117.621 197.925,117.524 199.100 C 117.424 200.311,117.224 200.625,116.488 200.729 C 115.070 200.931,115.274 210.925,116.700 211.128 C 117.351 211.220,117.600 211.524,117.600 212.228 C 117.600 212.913,117.822 213.200,118.353 213.200 C 118.770 213.200,119.200 213.557,119.316 214.000 C 119.511 214.745,119.862 214.800,124.400 214.800 C 128.938 214.800,129.289 214.745,129.484 214.000 C 129.600 213.557,130.030 213.200,130.447 213.200 C 130.984 213.200,131.200 212.913,131.200 212.200 C 131.200 211.400,131.400 211.200,132.200 211.200 L 133.200 211.200 133.200 229.437 C 133.200 247.338,133.215 247.679,134.000 247.884 C 134.627 248.048,134.800 248.430,134.800 249.647 C 134.800 250.915,134.942 251.200,135.572 251.200 C 136.068 251.200,136.390 251.522,136.472 252.100 C 136.554 252.678,136.922 253.046,137.500 253.128 C 138.078 253.210,138.400 253.532,138.400 254.028 C 138.400 254.742,138.717 254.800,142.600 254.800 C 146.449 254.800,146.800 254.737,146.800 254.045 C 146.800 253.458,147.198 253.231,148.600 253.021 C 150.383 252.754,150.400 252.736,150.400 251.175 C 150.400 249.867,150.535 249.600,151.200 249.600 C 151.959 249.600,152.000 249.333,152.000 244.400 C 152.000 239.467,151.959 239.200,151.200 239.200 C 150.530 239.200,150.400 238.933,150.400 237.563 C 150.400 236.262,150.236 235.882,149.600 235.716 C 149.092 235.583,148.800 235.170,148.800 234.586 C 148.800 233.140,148.379 232.400,147.557 232.400 C 146.926 232.400,146.800 232.099,146.800 230.600 C 146.800 229.067,146.681 228.800,146.000 228.800 C 145.330 228.800,145.200 228.533,145.200 227.163 C 145.200 225.876,145.033 225.481,144.421 225.321 C 143.835 225.168,143.612 224.707,143.521 223.459 C 143.421 222.088,143.244 221.778,142.500 221.672 C 141.680 221.556,141.600 221.329,141.600 219.135 C 141.600 217.062,141.488 216.696,140.800 216.516 C 140.113 216.336,140.000 215.970,140.000 213.916 C 140.000 211.862,139.887 211.496,139.200 211.316 C 138.528 211.140,138.400 210.770,138.400 209.003 C 138.400 205.784,138.024 204.400,137.150 204.400 C 136.475 204.400,136.400 204.058,136.400 201.000 C 136.400 197.882,136.335 197.600,135.610 197.600 C 134.864 197.600,134.815 197.269,134.710 191.500 L 134.600 185.400 132.384 185.283 C 131.165 185.218,130.040 185.293,129.884 185.449 M84.400 198.200 C 84.400 198.933,84.613 199.200,85.200 199.200 C 85.988 199.200,86.000 199.467,86.000 216.600 C 86.000 233.733,85.988 234.000,85.200 234.000 C 84.667 234.000,84.400 234.267,84.400 234.800 C 84.400 235.541,84.133 235.600,80.800 235.600 L 77.200 235.600 77.200 234.000 C 77.200 232.667,77.067 232.400,76.400 232.400 C 75.613 232.400,75.600 232.133,75.600 215.800 C 75.600 199.467,75.613 199.200,76.400 199.200 C 76.987 199.200,77.200 198.933,77.200 198.200 C 77.200 197.207,77.227 197.200,80.800 197.200 C 84.373 197.200,84.400 197.207,84.400 198.200 M258.400 198.200 C 258.400 198.933,258.613 199.200,259.200 199.200 C 259.988 199.200,260.000 199.467,260.000 216.600 C 260.000 233.733,259.988 234.000,259.200 234.000 C 258.667 234.000,258.400 234.267,258.400 234.800 C 258.400 235.541,258.133 235.600,254.800 235.600 L 251.200 235.600 251.200 234.000 C 251.200 232.667,251.067 232.400,250.400 232.400 C 249.613 232.400,249.600 232.133,249.600 215.800 C 249.600 199.467,249.613 199.200,250.400 199.200 C 250.987 199.200,251.200 198.933,251.200 198.200 C 251.200 197.207,251.227 197.200,254.800 197.200 C 258.373 197.200,258.400 197.207,258.400 198.200 M341.806 265.980 C 341.670 266.408,341.208 266.870,340.780 267.006 C 340.351 267.143,340.000 267.602,340.000 268.027 C 340.000 268.533,339.724 268.800,339.200 268.800 C 338.667 268.800,338.400 269.067,338.400 269.600 C 338.400 270.145,338.133 270.400,337.563 270.400 C 337.075 270.400,336.642 270.719,336.526 271.163 C 336.416 271.583,335.983 272.016,335.563 272.126 C 335.119 272.242,334.800 272.675,334.800 273.163 C 334.800 273.871,334.557 274.000,333.227 274.000 C 332.005 274.000,331.597 274.179,331.400 274.800 C 331.260 275.240,330.798 275.600,330.373 275.600 C 329.815 275.600,329.600 275.878,329.600 276.600 C 329.600 277.333,329.387 277.600,328.800 277.600 C 328.267 277.600,328.000 277.867,328.000 278.400 C 328.000 279.081,327.733 279.200,326.200 279.200 C 324.685 279.200,324.400 279.323,324.400 279.976 C 324.400 280.584,324.075 280.779,322.900 280.876 C 321.797 280.967,321.295 281.238,321.005 281.900 C 320.788 282.395,320.293 282.800,319.905 282.800 C 319.467 282.800,319.200 283.103,319.200 283.600 C 319.200 284.281,318.933 284.400,317.400 284.400 C 315.867 284.400,315.600 284.519,315.600 285.200 C 315.600 285.863,315.333 286.000,314.043 286.000 C 312.717 286.000,312.450 286.148,312.236 287.000 C 312.021 287.857,311.757 288.000,310.392 288.000 C 309.067 288.000,308.800 288.134,308.800 288.800 C 308.800 289.481,308.533 289.600,307.000 289.600 C 305.481 289.600,305.200 289.722,305.200 290.381 C 305.200 291.059,304.872 291.177,302.700 291.281 C 300.455 291.388,300.187 291.492,300.072 292.300 C 299.955 293.127,299.735 293.200,297.372 293.200 C 295.067 293.200,294.800 293.283,294.800 294.000 C 294.800 294.533,294.533 294.800,294.000 294.800 C 293.263 294.800,293.200 295.067,293.200 298.200 C 293.200 301.333,293.263 301.600,294.000 301.600 C 294.587 301.600,294.800 301.867,294.800 302.600 C 294.800 303.333,295.013 303.600,295.600 303.600 C 296.267 303.600,296.400 303.867,296.400 305.200 C 296.400 306.640,296.500 306.800,297.400 306.800 C 298.319 306.800,298.400 306.947,298.400 308.600 C 298.400 310.133,298.519 310.400,299.200 310.400 C 299.864 310.400,300.000 310.667,300.000 311.973 C 300.000 313.165,300.183 313.604,300.757 313.786 C 301.173 313.918,301.606 314.381,301.719 314.813 C 301.841 315.280,302.266 315.600,302.763 315.600 C 303.488 315.600,303.600 315.840,303.600 317.400 C 303.600 318.933,303.719 319.200,304.400 319.200 C 305.064 319.200,305.200 319.467,305.200 320.773 C 305.200 321.973,305.382 322.404,305.968 322.590 C 306.482 322.753,306.824 323.356,307.003 324.417 C 307.205 325.616,307.456 326.000,308.035 326.000 C 308.545 326.000,308.800 326.279,308.800 326.837 C 308.800 327.338,309.121 327.759,309.600 327.884 C 310.227 328.048,310.400 328.430,310.400 329.647 C 310.400 330.910,310.543 331.200,311.165 331.200 C 311.749 331.200,311.995 331.589,312.208 332.849 C 312.400 333.985,312.722 334.559,313.243 334.695 C 313.660 334.804,314.000 335.232,314.000 335.647 C 314.000 336.133,314.283 336.400,314.800 336.400 C 315.481 336.400,315.600 336.667,315.600 338.200 C 315.600 339.699,315.726 340.000,316.357 340.000 C 317.194 340.000,317.600 340.742,317.600 342.270 C 317.600 342.938,317.868 343.345,318.400 343.484 C 319.006 343.643,319.200 344.030,319.200 345.084 C 319.200 346.125,319.396 346.526,319.978 346.678 C 320.405 346.790,320.810 347.268,320.878 347.741 C 320.954 348.279,321.337 348.648,321.900 348.728 C 322.659 348.836,322.800 349.102,322.800 350.428 C 322.800 351.733,322.936 352.000,323.600 352.000 C 324.281 352.000,324.400 352.267,324.400 353.800 C 324.400 355.315,324.523 355.600,325.176 355.600 C 325.784 355.600,325.979 355.925,326.076 357.100 C 326.167 358.203,326.438 358.705,327.100 358.995 C 327.595 359.212,328.000 359.707,328.000 360.095 C 328.000 360.533,328.303 360.800,328.800 360.800 C 329.481 360.800,329.600 361.067,329.600 362.600 C 329.600 364.115,329.723 364.400,330.376 364.400 C 330.984 364.400,331.179 364.725,331.276 365.900 C 331.367 367.003,331.638 367.505,332.300 367.795 C 333.004 368.104,333.200 368.518,333.200 369.695 C 333.200 370.933,333.342 371.200,334.000 371.200 C 334.545 371.200,334.800 371.467,334.800 372.037 C 334.800 372.534,335.120 372.959,335.587 373.081 C 336.019 373.194,336.482 373.627,336.614 374.043 C 336.955 375.117,339.591 375.119,339.872 374.046 C 340.006 373.535,340.566 373.212,341.608 373.045 C 342.662 372.877,343.226 372.547,343.400 372.000 C 343.540 371.560,344.002 371.200,344.427 371.200 C 344.933 371.200,345.200 370.924,345.200 370.400 C 345.200 369.730,345.467 369.600,346.837 369.600 C 348.123 369.600,348.519 369.433,348.678 368.822 C 348.825 368.263,349.293 368.009,350.341 367.922 C 351.504 367.825,351.826 367.618,351.928 366.900 C 352.036 366.137,352.301 366.000,353.665 366.000 C 354.938 366.000,355.319 365.833,355.484 365.200 C 355.600 364.757,356.030 364.400,356.447 364.400 C 356.926 364.400,357.200 364.117,357.200 363.623 C 357.200 362.995,357.526 362.822,358.900 362.723 C 360.313 362.621,360.622 362.448,360.728 361.700 C 360.836 360.937,361.101 360.800,362.465 360.800 C 363.738 360.800,364.119 360.633,364.284 360.000 C 364.442 359.397,364.830 359.200,365.857 359.200 C 366.943 359.200,367.297 358.997,367.600 358.200 C 367.833 357.588,368.294 357.200,368.790 357.200 C 369.333 357.200,369.600 356.937,369.600 356.400 C 369.600 355.730,369.867 355.600,371.237 355.600 C 372.523 355.600,372.919 355.433,373.078 354.822 C 373.225 354.263,373.693 354.009,374.741 353.922 C 375.904 353.825,376.226 353.618,376.328 352.900 C 376.436 352.137,376.701 352.000,378.065 352.000 C 379.338 352.000,379.719 351.833,379.884 351.200 C 380.000 350.757,380.430 350.400,380.847 350.400 C 381.326 350.400,381.600 350.117,381.600 349.623 C 381.600 348.995,381.926 348.822,383.300 348.723 C 384.713 348.621,385.022 348.448,385.128 347.700 C 385.235 346.944,385.503 346.800,386.801 346.800 C 387.995 346.800,388.404 346.618,388.600 346.000 C 388.740 345.560,389.202 345.200,389.627 345.200 C 390.759 345.200,390.756 342.167,389.623 341.807 C 389.073 341.633,388.810 341.128,388.723 340.080 C 388.625 338.895,388.420 338.574,387.700 338.472 C 386.937 338.364,386.800 338.099,386.800 336.735 C 386.800 335.462,386.633 335.081,386.000 334.916 C 385.557 334.800,385.200 334.370,385.200 333.953 C 385.200 333.474,384.917 333.200,384.423 333.200 C 383.795 333.200,383.622 332.874,383.523 331.500 C 383.421 330.087,383.248 329.778,382.500 329.672 C 381.737 329.564,381.600 329.299,381.600 327.935 C 381.600 326.662,381.433 326.281,380.800 326.116 C 380.194 325.957,380.000 325.570,380.000 324.516 C 380.000 323.475,379.804 323.074,379.222 322.922 C 378.795 322.810,378.390 322.332,378.322 321.859 C 378.246 321.321,377.863 320.952,377.300 320.872 C 376.541 320.764,376.400 320.498,376.400 319.172 C 376.400 317.867,376.264 317.600,375.600 317.600 C 374.919 317.600,374.800 317.333,374.800 315.800 C 374.800 314.267,374.681 314.000,374.000 314.000 C 373.469 314.000,373.200 313.733,373.200 313.208 C 373.200 312.696,372.846 312.326,372.200 312.164 C 371.348 311.950,371.200 311.683,371.200 310.357 C 371.200 309.067,371.063 308.800,370.400 308.800 C 369.730 308.800,369.600 308.533,369.600 307.163 C 369.600 305.882,369.432 305.481,368.829 305.323 C 368.300 305.185,367.974 304.630,367.793 303.561 C 367.594 302.383,367.342 302.000,366.765 302.000 C 366.216 302.000,366.000 301.718,366.000 301.000 C 366.000 300.267,365.787 300.000,365.200 300.000 C 364.530 300.000,364.400 299.733,364.400 298.363 C 364.400 297.062,364.236 296.682,363.600 296.516 C 363.092 296.383,362.800 295.970,362.800 295.386 C 362.800 293.940,362.379 293.200,361.557 293.200 C 360.938 293.200,360.800 292.902,360.800 291.563 C 360.800 290.262,360.636 289.882,360.000 289.716 C 359.557 289.600,359.200 289.170,359.200 288.753 C 359.200 288.216,358.913 288.000,358.200 288.000 C 357.281 288.000,357.200 287.853,357.200 286.200 C 357.200 284.667,357.081 284.400,356.400 284.400 C 355.730 284.400,355.600 284.133,355.600 282.763 C 355.600 281.462,355.436 281.082,354.800 280.916 C 354.292 280.783,354.000 280.370,354.000 279.786 C 354.000 278.340,353.579 277.600,352.757 277.600 C 352.216 277.600,352.000 277.314,352.000 276.600 C 352.000 275.867,351.787 275.600,351.200 275.600 C 350.536 275.600,350.400 275.333,350.400 274.027 C 350.400 272.805,350.221 272.397,349.600 272.200 C 349.099 272.041,348.800 271.595,348.800 271.006 C 348.800 269.541,348.383 268.800,347.557 268.800 C 347.016 268.800,346.800 268.514,346.800 267.800 C 346.800 267.087,346.584 266.800,346.047 266.800 C 345.630 266.800,345.200 266.443,345.084 266.000 C 344.788 264.869,342.164 264.852,341.806 265.980 M392.400 354.800 C 392.400 355.387,392.133 355.600,391.400 355.600 C 390.669 355.600,390.400 355.814,390.400 356.395 C 390.400 357.018,390.041 357.248,388.747 357.455 C 387.615 357.636,387.033 357.952,386.900 358.460 C 386.754 359.020,386.329 359.200,385.153 359.200 C 383.867 359.200,383.600 359.337,383.600 360.000 C 383.600 360.617,383.333 360.800,382.433 360.800 C 380.745 360.800,380.000 361.181,380.000 362.043 C 380.000 362.533,379.718 362.800,379.200 362.800 C 378.667 362.800,378.400 363.067,378.400 363.600 C 378.400 364.281,378.133 364.400,376.600 364.400 C 375.067 364.400,374.800 364.519,374.800 365.200 C 374.800 365.866,374.533 366.000,373.208 366.000 C 371.843 366.000,371.579 366.143,371.364 367.000 C 371.150 367.852,370.883 368.000,369.557 368.000 C 368.267 368.000,368.000 368.137,368.000 368.800 C 368.000 369.387,367.733 369.600,367.000 369.600 C 366.267 369.600,366.000 369.813,366.000 370.400 C 366.000 371.067,365.733 371.200,364.400 371.200 C 362.960 371.200,362.800 371.300,362.800 372.200 C 362.800 373.119,362.653 373.200,361.000 373.200 C 359.467 373.200,359.200 373.319,359.200 374.000 C 359.200 374.664,358.933 374.800,357.627 374.800 C 356.405 374.800,355.997 374.979,355.800 375.600 C 355.660 376.040,355.198 376.400,354.773 376.400 C 354.215 376.400,354.000 376.678,354.000 377.400 C 354.000 378.319,353.853 378.400,352.200 378.400 C 350.667 378.400,350.400 378.519,350.400 379.200 C 350.400 379.852,350.133 380.000,348.963 380.000 C 347.875 380.000,347.476 380.189,347.322 380.778 C 347.210 381.205,346.732 381.610,346.259 381.678 C 345.721 381.754,345.352 382.137,345.272 382.700 C 345.190 383.278,344.868 383.600,344.372 383.600 C 343.186 383.600,343.212 388.374,344.400 388.684 C 345.006 388.843,345.200 389.230,345.200 390.284 C 345.200 391.325,345.396 391.726,345.978 391.878 C 346.405 391.990,346.810 392.468,346.878 392.941 C 346.954 393.479,347.337 393.848,347.900 393.928 C 348.478 394.010,348.800 394.332,348.800 394.828 C 348.800 395.465,349.086 395.600,350.437 395.600 C 351.738 395.600,352.118 395.764,352.284 396.400 C 352.463 397.086,352.830 397.200,354.847 397.200 C 356.933 397.200,357.200 397.109,357.200 396.400 C 357.200 395.682,357.467 395.600,359.800 395.600 C 362.133 395.600,362.400 395.518,362.400 394.800 C 362.400 394.213,362.667 394.000,363.400 394.000 C 364.200 394.000,364.400 393.800,364.400 393.000 C 364.400 392.081,364.547 392.000,366.200 392.000 C 367.733 392.000,368.000 391.881,368.000 391.200 C 368.000 390.533,368.267 390.400,369.600 390.400 C 370.933 390.400,371.200 390.267,371.200 389.600 C 371.200 389.008,371.467 388.800,372.226 388.800 C 373.568 388.800,374.800 388.123,374.800 387.386 C 374.800 387.064,375.160 386.800,375.600 386.800 C 376.133 386.800,376.400 386.533,376.400 386.000 C 376.400 385.319,376.667 385.200,378.200 385.200 C 379.733 385.200,380.000 385.081,380.000 384.400 C 380.000 383.782,380.267 383.600,381.171 383.600 C 382.305 383.600,383.600 382.732,383.600 381.971 C 383.600 381.767,383.960 381.600,384.400 381.600 C 384.933 381.600,385.200 381.333,385.200 380.800 C 385.200 380.130,385.467 380.000,386.837 380.000 C 388.123 380.000,388.519 379.833,388.678 379.222 C 388.825 378.663,389.293 378.409,390.341 378.322 C 391.504 378.225,391.826 378.018,391.928 377.300 C 392.036 376.537,392.301 376.400,393.665 376.400 C 394.938 376.400,395.319 376.233,395.484 375.600 C 395.600 375.157,396.030 374.800,396.447 374.800 C 396.933 374.800,397.200 374.517,397.200 374.000 C 397.200 373.352,397.467 373.200,398.600 373.200 L 400.000 373.200 400.000 367.200 C 400.000 362.670,399.878 361.198,399.500 361.194 C 399.167 361.190,399.200 361.058,399.600 360.800 C 400.133 360.455,400.133 360.411,399.600 360.400 C 399.067 360.389,399.067 360.344,399.600 359.994 C 400.037 359.707,400.073 359.518,399.733 359.297 C 399.475 359.130,399.205 358.365,399.133 357.597 C 399.039 356.608,398.737 356.085,398.100 355.805 C 397.605 355.588,397.200 355.093,397.200 354.705 C 397.200 354.110,396.826 354.000,394.800 354.000 C 392.667 354.000,392.400 354.089,392.400 354.800 M338.800 373.133 C 338.800 373.654,338.324 374.001,337.938 373.761 C 337.524 373.506,337.881 372.800,338.424 372.800 C 338.631 372.800,338.800 372.950,338.800 373.133 " stroke="none" fill="#047c44" fill-rule="evenodd"></path><path id="path1" d="M322.341 69.301 C 322.543 69.503,323.133 69.601,323.654 69.519 C 324.455 69.393,324.398 69.337,323.287 69.152 C 322.493 69.021,322.119 69.079,322.341 69.301 M0.345 109.958 C 0.806 110.249,0.806 110.333,0.345 110.497 C 0.045 110.603,-0.055 110.845,0.122 111.034 C 0.490 111.426,1.250 110.404,0.950 109.919 C 0.842 109.744,0.538 109.603,0.276 109.606 C -0.041 109.610,-0.018 109.728,0.345 109.958 M337.817 373.172 C 337.544 373.614,338.175 374.092,338.544 373.722 C 338.925 373.342,338.854 372.800,338.424 372.800 C 338.217 372.800,337.944 372.968,337.817 373.172 " stroke="none" fill="#087c44" fill-rule="evenodd"></path><path id="path2" d="M322.341 69.301 C 322.543 69.503,323.133 69.601,323.654 69.519 C 324.455 69.393,324.398 69.337,323.287 69.152 C 322.493 69.021,322.119 69.079,322.341 69.301 M0.345 109.958 C 0.806 110.249,0.806 110.333,0.345 110.497 C 0.045 110.603,-0.055 110.845,0.122 111.034 C 0.490 111.426,1.250 110.404,0.950 109.919 C 0.842 109.744,0.538 109.603,0.276 109.606 C -0.041 109.610,-0.018 109.728,0.345 109.958 M337.817 373.172 C 337.544 373.614,338.175 374.092,338.544 373.722 C 338.925 373.342,338.854 372.800,338.424 372.800 C 338.217 372.800,337.944 372.968,337.817 373.172 " stroke="none" fill="#087c44" fill-rule="evenodd"></path><path id="path3" d="M322.341 69.301 C 322.543 69.503,323.133 69.601,323.654 69.519 C 324.455 69.393,324.398 69.337,323.287 69.152 C 322.493 69.021,322.119 69.079,322.341 69.301 M0.345 109.958 C 0.806 110.249,0.806 110.333,0.345 110.497 C 0.045 110.603,-0.055 110.845,0.122 111.034 C 0.490 111.426,1.250 110.404,0.950 109.919 C 0.842 109.744,0.538 109.603,0.276 109.606 C -0.041 109.610,-0.018 109.728,0.345 109.958 M337.817 373.172 C 337.544 373.614,338.175 374.092,338.544 373.722 C 338.925 373.342,338.854 372.800,338.424 372.800 C 338.217 372.800,337.944 372.968,337.817 373.172 " stroke="none" fill="#087c44" fill-rule="evenodd"></path><path id="path4" d="M322.341 69.301 C 322.543 69.503,323.133 69.601,323.654 69.519 C 324.455 69.393,324.398 69.337,323.287 69.152 C 322.493 69.021,322.119 69.079,322.341 69.301 M0.345 109.958 C 0.806 110.249,0.806 110.333,0.345 110.497 C 0.045 110.603,-0.055 110.845,0.122 111.034 C 0.490 111.426,1.250 110.404,0.950 109.919 C 0.842 109.744,0.538 109.603,0.276 109.606 C -0.041 109.610,-0.018 109.728,0.345 109.958 M337.817 373.172 C 337.544 373.614,338.175 374.092,338.544 373.722 C 338.925 373.342,338.854 372.800,338.424 372.800 C 338.217 372.800,337.944 372.968,337.817 373.172 " stroke="none" fill="#087c44" fill-rule="evenodd"></path></g></svg>
